<svg xmlns="http://www.w3.org/2000/svg" xmlns:xlink="http://www.w3.org/1999/xlink" width="512" height="512" viewBox="0 0 512 512">
  <defs>
    <clipPath id="clip-PWA-Icon">
      <rect width="512" height="512"/>
    </clipPath>
  </defs>
  <g id="PWA-Icon" clip-path="url(#clip-PWA-Icon)">
    <g id="Gruppe_88" data-name="Gruppe 88" transform="translate(-280 -310.226)">
      <path id="Icon_awesome-brain" data-name="Icon awesome-brain" d="M200.616,207.189a54.24,54.24,0,0,0-27.466-47.095,53.641,53.641,0,0,0,5.657-23.786,54.522,54.522,0,0,0-33.873-50.434,43.215,43.215,0,0,0-42.46-53.16c-.545,0-1.022.136-1.5.136A43.535,43.535,0,0,0,15.236,43.619v256.26a48.954,48.954,0,0,0,95.416,15.539,46.208,46.208,0,0,0,8.179.818A49.04,49.04,0,0,0,167.9,267.165a49.947,49.947,0,0,0-.954-9.61A54.524,54.524,0,0,0,200.616,207.189Z" transform="translate(531.953 391.807)" fill="#683b89"/>
      <path id="Icon_awesome-brain-2" data-name="Icon awesome-brain" d="M141.761,0A43.49,43.49,0,0,0,99.642,32.85c-.545,0-.954-.136-1.5-.136A43.659,43.659,0,0,0,54.523,76.333a40.193,40.193,0,0,0,1.159,9.542,54.053,54.053,0,0,0-28.216,74.22,54.321,54.321,0,0,0,6.2,97.461,49.944,49.944,0,0,0-.954,9.61,49.04,49.04,0,0,0,49.071,49.071,46.208,46.208,0,0,0,8.179-.818,48.954,48.954,0,0,0,95.416-15.539V43.619A43.659,43.659,0,0,0,141.761,0Z" transform="translate(340 391.807)" fill="#00c5aa"/>
    </g>
  </g>
</svg>
