<svg xmlns="http://www.w3.org/2000/svg" width="309.266" height="205" viewBox="0 0 309.266 205">
  <g id="undraw_Working_oh83" transform="translate(-26.558)">
    <rect id="Rechteck_124" data-name="Rechteck 124" width="90.909" height="132.015" rx="13.435" transform="translate(26.558 20.728) rotate(-12.753)" fill="#3f3d56"/>
    <circle id="Ellipse_129" data-name="Ellipse 129" cx="2.623" cy="2.623" r="2.623" transform="translate(32.854 35.407)" fill="#fff"/>
    <circle id="Ellipse_130" data-name="Ellipse 130" cx="2.623" cy="2.623" r="2.623" transform="translate(35.477 45.024)" fill="#fff"/>
    <circle id="Ellipse_131" data-name="Ellipse 131" cx="2.623" cy="2.623" r="2.623" transform="translate(52.524 115.4)" fill="#fff"/>
    <circle id="Ellipse_132" data-name="Ellipse 132" cx="2.623" cy="2.623" r="2.623" transform="translate(55.147 125.017)" fill="#fff"/>
    <rect id="Rechteck_125" data-name="Rechteck 125" width="54.586" height="9.098" transform="translate(55.931 62.791) rotate(-12.753)" fill="#f5f5f5"/>
    <rect id="Rechteck_126" data-name="Rechteck 126" width="90.909" height="132.015" transform="translate(91.158 66.858) rotate(-12.753)" fill="#683b89"/>
    <rect id="Rechteck_127" data-name="Rechteck 127" width="90.909" height="132.015" transform="translate(184.661 45.696) rotate(-12.753)" fill="#3f3d56"/>
    <rect id="Rechteck_128" data-name="Rechteck 128" width="54.586" height="9.098" transform="translate(110.134 77.216) rotate(-12.753)" fill="#f5f5f5"/>
    <rect id="Rechteck_129" data-name="Rechteck 129" width="72.781" height="2.274" transform="translate(106.114 100.667) rotate(-12.753)" fill="#f5f5f5"/>
    <rect id="Rechteck_130" data-name="Rechteck 130" width="72.781" height="2.274" transform="translate(107.285 105.843) rotate(-12.753)" fill="#f5f5f5"/>
    <rect id="Rechteck_131" data-name="Rechteck 131" width="72.781" height="2.274" transform="translate(108.457 111.02) rotate(-12.753)" fill="#f5f5f5"/>
    <rect id="Rechteck_132" data-name="Rechteck 132" width="34.874" height="2.274" transform="translate(109.628 116.196) rotate(-12.753)" fill="#f5f5f5"/>
    <rect id="Rechteck_133" data-name="Rechteck 133" width="40.181" height="2.274" transform="translate(110.8 121.372) rotate(-12.753)" fill="#f5f5f5"/>
    <rect id="Rechteck_134" data-name="Rechteck 134" width="72.781" height="2.274" transform="translate(111.971 126.548) rotate(-12.753)" fill="#f5f5f5"/>
    <rect id="Rechteck_135" data-name="Rechteck 135" width="72.781" height="2.274" transform="translate(113.143 131.724) rotate(-12.753)" fill="#f5f5f5"/>
    <rect id="Rechteck_136" data-name="Rechteck 136" width="67.474" height="2.274" transform="translate(114.314 136.9) rotate(-12.753)" fill="#f5f5f5"/>
    <rect id="Rechteck_137" data-name="Rechteck 137" width="72.781" height="2.274" transform="translate(115.486 142.076) rotate(-12.753)" fill="#f5f5f5"/>
    <rect id="Rechteck_138" data-name="Rechteck 138" width="37.907" height="2.274" transform="translate(116.657 147.252) rotate(-12.753)" fill="#f5f5f5"/>
    <rect id="Rechteck_139" data-name="Rechteck 139" width="40.181" height="2.274" transform="translate(214.122 131.412) rotate(-12.753)" fill="#683b89" opacity="0.3"/>
    <rect id="Rechteck_140" data-name="Rechteck 140" width="72.781" height="2.274" transform="translate(215.294 136.588) rotate(-12.753)" fill="#683b89" opacity="0.3"/>
    <rect id="Rechteck_141" data-name="Rechteck 141" width="72.781" height="2.274" transform="translate(216.465 141.764) rotate(-12.753)" fill="#683b89" opacity="0.3"/>
    <rect id="Rechteck_142" data-name="Rechteck 142" width="67.474" height="2.274" transform="translate(217.637 146.94) rotate(-12.753)" fill="#683b89" opacity="0.3"/>
    <rect id="Rechteck_143" data-name="Rechteck 143" width="72.781" height="2.274" transform="translate(218.808 152.116) rotate(-12.753)" fill="#683b89" opacity="0.3"/>
    <rect id="Rechteck_144" data-name="Rechteck 144" width="43.972" height="30.326" transform="translate(145.285 150.1) rotate(-12.753)" fill="#f5f5f5"/>
    <rect id="Rechteck_145" data-name="Rechteck 145" width="43.972" height="30.326" transform="translate(196.049 51.553) rotate(-12.753)" fill="#683b89" opacity="0.3"/>
    <rect id="Rechteck_146" data-name="Rechteck 146" width="43.972" height="30.326" transform="translate(238.025 82.472) rotate(-12.753)" fill="#683b89" opacity="0.3"/>
    <g id="Gruppe_43" data-name="Gruppe 43" transform="translate(218.194)" opacity="0.5">
      <rect id="Rechteck_149" data-name="Rechteck 149" width="1.311" height="7.431" transform="translate(3.06)" fill="#47e6b1"/>
      <rect id="Rechteck_150" data-name="Rechteck 150" width="1.311" height="7.431" transform="translate(7.431 3.06) rotate(90)" fill="#47e6b1"/>
    </g>
    <circle id="Ellipse_133" data-name="Ellipse 133" cx="2.623" cy="2.623" r="2.623" transform="translate(41.596 196.393)" fill="#f55f44" opacity="0.5"/>
    <circle id="Ellipse_134" data-name="Ellipse 134" cx="2.623" cy="2.623" r="2.623" transform="translate(135.14)" fill="#4d8af0" opacity="0.5"/>
    <circle id="Ellipse_135" data-name="Ellipse 135" cx="2.623" cy="2.623" r="2.623" transform="translate(197.298 197.551)" fill="#47e6b1" opacity="0.5"/>
    <rect id="Rechteck_153" data-name="Rechteck 153" width="90.909" height="132.015" rx="13.435" transform="translate(218.016 76.242) rotate(-12.753)" fill="#683b89"/>
    <circle id="Ellipse_137" data-name="Ellipse 137" cx="2.623" cy="2.623" r="2.623" transform="translate(224.313 90.921)" fill="#fff"/>
    <circle id="Ellipse_138" data-name="Ellipse 138" cx="2.623" cy="2.623" r="2.623" transform="translate(226.936 100.538)" fill="#fff"/>
    <circle id="Ellipse_139" data-name="Ellipse 139" cx="2.623" cy="2.623" r="2.623" transform="translate(243.984 170.915)" fill="#fff"/>
    <circle id="Ellipse_140" data-name="Ellipse 140" cx="2.623" cy="2.623" r="2.623" transform="translate(246.606 180.531)" fill="#fff"/>
    <rect id="Rechteck_154" data-name="Rechteck 154" width="54.586" height="9.098" transform="translate(247.39 118.304) rotate(-12.753)" fill="#f5f5f5"/>
  </g>
</svg>
