<svg xmlns="http://www.w3.org/2000/svg" xmlns:xlink="http://www.w3.org/1999/xlink" width="246.001" height="204.357" viewBox="0 0 246.001 204.357">
  <defs>
    <clipPath id="clip-path">
      <path id="Pfad_1225" data-name="Pfad 1225" d="M620.742,91.276a40.611,40.611,0,0,1-5.374,20.979,41.908,41.908,0,0,1-3.82,5.485c-12.532,15.328-35.832,23.718-56.891,37.307-62.162,40.112-68.9-24.164-66.088-63.771a70.67,70.67,0,0,1,17.244-41.83,65.635,65.635,0,0,1,6.712-6.6A64.29,64.29,0,0,1,554.657,27.5c28.144,0,52.177,16.975,61.707,40.9a61.776,61.776,0,0,1,4.379,22.878Z" transform="translate(-148.309 -378.503)" fill="#683b89"/>
    </clipPath>
  </defs>
  <g id="Gruppe_17" data-name="Gruppe 17" transform="translate(-57 -69)">
    <g id="Gruppe_16" data-name="Gruppe 16" transform="translate(-48 343)">
      <path id="Pfad_1166" data-name="Pfad 1166" d="M620.742,91.276a40.611,40.611,0,0,1-5.374,20.979,41.908,41.908,0,0,1-3.82,5.485c-12.532,15.328-35.832,23.718-56.891,37.307-62.162,40.112-68.9-24.164-66.088-63.771a70.67,70.67,0,0,1,17.244-41.83,65.635,65.635,0,0,1,6.712-6.6A64.29,64.29,0,0,1,554.657,27.5c28.144,0,52.177,16.975,61.707,40.9a61.776,61.776,0,0,1,4.379,22.878Z" transform="translate(-281.309 -301.503)" fill="#683b89"/>
      <path id="Pfad_1167" data-name="Pfad 1167" d="M626.268,88.423l-62.924,7.571a65.636,65.636,0,0,1,6.712-6.6Z" transform="translate(-340.492 -348.05)" fill="#d0cde1"/>
      <path id="Pfad_1168" data-name="Pfad 1168" d="M840.773,383.5a41.922,41.922,0,0,1-3.82,5.485l-53.9-6.483Z" transform="translate(-508.366 -572.749)" fill="#d0cde1"/>
      <path id="Pfad_1170" data-name="Pfad 1170" d="M473.73,78.11c0,.163,0,.323-.019.481a6.605,6.605,0,1,1-12.429-3.565,6.073,6.073,0,0,1,.486-.781,6.6,6.6,0,0,1,11.938,3.327C473.723,77.749,473.73,77.928,473.73,78.11Z" transform="translate(-261.925 -335.122)" fill="#683b89"/>
      <path id="Pfad_1171" data-name="Pfad 1171" d="M484.427,97.213c0,.163,0,.323-.019.481l-9.89-1.189,9.885.17C484.42,96.852,484.427,97.031,484.427,97.213Z" transform="translate(-272.623 -354.225)" fill="#d0cde1"/>
      <path id="Pfad_1172" data-name="Pfad 1172" d="M474.626,113.615l-9.149,1.1a6.619,6.619,0,0,1-.7-.932Z" transform="translate(-265.181 -367.299)" fill="#d0cde1"/>
      <path id="Pfad_1173" data-name="Pfad 1173" d="M471.252,82.615l-7.493.9a6.072,6.072,0,0,1,.486-.781Z" transform="translate(-264.401 -343.612)" fill="#d0cde1"/>
      <path id="Pfad_1174" data-name="Pfad 1174" d="M859.958,572.209c-.076.144-.156.283-.242.416a6.605,6.605,0,1,1-9.307-8.975,6.074,6.074,0,0,1,.8-.462,6.6,6.6,0,0,1,8.986,8.535C860.12,571.887,860.043,572.049,859.958,572.209Z" transform="translate(-557.62 -710.285)" fill="#683b89"/>
      <path id="Pfad_1175" data-name="Pfad 1175" d="M872.979,586.562c-.076.144-.156.283-.242.416l-8.179-5.687,8.652,4.784C873.142,586.24,873.065,586.4,872.979,586.562Z" transform="translate(-570.642 -724.639)" fill="#d0cde1"/>
      <path id="Pfad_1176" data-name="Pfad 1176" d="M856.375,596.942l-8.6-3.316a6.622,6.622,0,0,1-.18-1.151Z" transform="translate(-557.682 -733.184)" fill="#d0cde1"/>
      <path id="Pfad_1177" data-name="Pfad 1177" d="M866.816,568.573l-7.041-2.716a6.07,6.07,0,0,1,.8-.462Z" transform="translate(-566.987 -712.492)" fill="#d0cde1"/>
      <path id="Pfad_1178" data-name="Pfad 1178" d="M1061.857,114.5c.114.117.222.235.323.358a6.605,6.605,0,1,1-11.387,6.126,6.09,6.09,0,0,1-.2-.9,6.6,6.6,0,0,1,10.869-5.954C1061.6,114.246,1061.73,114.369,1061.857,114.5Z" transform="translate(-712.733 -366.451)" fill="#683b89"/>
      <path id="Pfad_1179" data-name="Pfad 1179" d="M1073.989,119.761c.114.117.222.235.323.358l-7.911,6.054,7.2-6.78C1073.732,119.508,1073.862,119.631,1073.989,119.761Z" transform="translate(-724.865 -371.714)" fill="#d0cde1"/>
      <path id="Pfad_1180" data-name="Pfad 1180" d="M1078.809,138.039l-5.781,7.177a6.621,6.621,0,0,1-1.151-.18Z" transform="translate(-729.049 -385.96)" fill="#d0cde1"/>
      <path id="Pfad_1181" data-name="Pfad 1181" d="M1055.764,123.526l-4.735,5.877a6.089,6.089,0,0,1-.2-.9Z" transform="translate(-712.968 -374.871)" fill="#d0cde1"/>
    </g>
    <g id="Gruppe_maskieren_1" data-name="Gruppe maskieren 1" transform="translate(-181 420)" clip-path="url(#clip-path)">
      <g id="Gruppe_15" data-name="Gruppe 15" transform="translate(336 -328.464)" opacity="0.5">
        <path id="Pfad_1182" data-name="Pfad 1182" d="M580.081,636.956s-14.5.6-14.5,4.228,16.309,0,16.309,0Z" transform="translate(-565.585 -513.705)" fill="#a0616a"/>
        <circle id="Ellipse_47" data-name="Ellipse 47" cx="15.101" cy="15.101" r="15.101" transform="translate(51.342 8.485)" fill="#a0616a"/>
        <path id="Pfad_1190" data-name="Pfad 1190" d="M212.59,150.526a85.279,85.279,0,0,1-8.551-4.535c.222-6.582-.589-12.557-2.961-15.724-1.332-3.024-4.128-6.051-6.318-8.435-5.379-5.855-17.272-9.123-19.382-6.2-15.955.315-17.634,12.821-17.634,12.821.083,5.231,5.52,5.4,10.282,5.206-.426,3.571,9.4,2.876,12.686,4.521a4.287,4.287,0,0,1,2.582,3.886c.249,3.506-3.951,8.537-6.232,10.59-3.147,2.832-8.811,10.384-1.259,12.272s8.5,5.664,6.294,7.238,5.035-2.832,5.035-2.832S188.39,176.889,195,175a3.975,3.975,0,0,0,1.766-1.251c1.785,1.961,3.377,3.12,4.577,3.127,6.873.036,6.048-7.576,6.048-7.576s8.157,2.291,5.612,1.37-2.654-4.812,4.109-8.666S216.384,152.4,212.59,150.526Z" transform="translate(-107.307 -114.545)" fill="#2f2e41"/>
        <path id="Pfad_1184" data-name="Pfad 1184" d="M274.794,229.879s4.228,18.725,10.872,24.161-25.973,0-25.973,0,7.248-12.081,1.812-17.517S274.794,229.879,274.794,229.879Z" transform="translate(-198.082 -202.669)" fill="#a0616a"/>
        <path id="Pfad_1185" data-name="Pfad 1185" d="M222.17,363.924l10.021,1.111,28.033,3.117s.133-.356.368-1c2.036-5.551,11.839-32.563,12.92-40.675,1.208-9.06-11.477-19.933-11.477-19.933s-12.081-2.416-15.7-2.416-18.121,5.436-18.121,5.436l-5.406,48.63-.465,4.21Z" transform="translate(-176.264 -259.399)" fill="#d0cde1"/>
        <path id="Pfad_1187" data-name="Pfad 1187" d="M410.639,326.5s6.04,7.852,1.208,21.745-11.477,35.638-11.477,35.638L365.337,404.42l-4.832-6.04,32.617-25.369s1.208-45.906,7.248-47.718A12.378,12.378,0,0,1,410.639,326.5Z" transform="translate(-349.029 -275.129)" fill="#d0cde1"/>
        <path id="Pfad_1183" data-name="Pfad 1183" d="M226.492,623.651l27.181-1.812,1.208-14.5,6.04,12.685L287.5,616.4c-.6-22.953-10.268-45.3-10.872-48.322s-2.048-15.5-2.048-15.5c-2.64-5.6-16.472-6.125-27.314-5.617-4.494.205-8.481.592-10.939.87-1.625.181-2.585.314-2.585.314-4.331,4.464-7.121,10.546-8.837,17.342C218.718,589.971,226.492,623.651,226.492,623.651Z" transform="translate(-190.251 -444.831)" fill="#2f2e41"/>
        <path id="Pfad_1188" data-name="Pfad 1188" d="M259.568,542.615s-8.456,17.517-12.081,15.7,9.06-19.933,9.06-19.933Z" transform="translate(-168.058 -438.392)" fill="#a0616a"/>
        <path id="Pfad_1189" data-name="Pfad 1189" d="M101.338,352.77l32.013,26.577s12.081,8.456-10.268,14.5-24.161,9.664-24.161,9.664-2.416-7.852-5.436-6.644l25.973-12.685L98.317,371.495Z" transform="translate(-8.922 -296.567)" fill="#d0cde1"/>
      </g>
    </g>
    <g id="Gruppe_14" data-name="Gruppe 14" transform="translate(-35 342)">
      <path id="Pfad_1182-2" data-name="Pfad 1182" d="M567.4,636.956s14.5.6,14.5,4.228-16.309,0-16.309,0Z" transform="translate(-362.204 -761.17)" fill="#a0616a"/>
      <path id="Pfad_1183-2" data-name="Pfad 1183" d="M283.52,623.651l-27.181-1.812-1.208-14.5-6.04,12.685L222.514,616.4c.6-22.953,10.268-45.3,10.872-48.322s2.048-15.5,2.048-15.5c2.64-5.6,16.472-6.125,27.314-5.617,4.494.205,8.481.592,10.939.87,1.625.181,2.585.314,2.585.314,4.331,4.464,7.121,10.546,8.837,17.342C291.294,589.971,283.52,623.651,283.52,623.651Z" transform="translate(-100.072 -692.295)" fill="#2f2e41"/>
      <circle id="Ellipse_47-2" data-name="Ellipse 47" cx="15.101" cy="15.101" r="15.101" transform="translate(138.146 -238.979)" fill="#a0616a"/>
      <path id="Pfad_1184-2" data-name="Pfad 1184" d="M271.458,229.879S267.23,248.6,260.586,254.04s25.973,0,25.973,0-7.248-12.081-1.812-17.517S271.458,229.879,271.458,229.879Z" transform="translate(-128.48 -450.133)" fill="#a0616a"/>
      <path id="Pfad_1185-2" data-name="Pfad 1185" d="M273.593,363.924l-10.021,1.111-28.033,3.117s-.133-.356-.368-1c-2.036-5.551-11.839-32.563-12.92-40.675-1.208-9.06,11.477-19.933,11.477-19.933s12.081-2.416,15.7-2.416,18.121,5.436,18.121,5.436l5.406,48.63.465,4.21Z" transform="translate(-99.81 -506.863)" fill="#d0cde1"/>
      <path id="Pfad_1186" data-name="Pfad 1186" d="M382.76,462.242l-20.313-11.905s-.356-1.16-.96-3.117c-.3-.979-.67-2.162-1.087-3.5-2.344-7.526-6.276-19.945-9.429-29.017-4.832-13.893,18.725,24.765,18.725,24.765l1.178.912.465,4.21c1.625.181,2.585.314,2.585.314C378.253,449.364,381.044,455.446,382.76,462.242Z" transform="translate(-197.723 -589.047)" opacity="0.15"/>
      <path id="Pfad_1187-2" data-name="Pfad 1187" d="M363.587,326.5s-6.04,7.852-1.208,21.745,11.477,35.638,11.477,35.638l35.034,20.537,4.832-6.04L381.1,373.011s-1.208-45.906-7.248-47.718A12.378,12.378,0,0,0,363.587,326.5Z" transform="translate(-205.508 -522.594)" fill="#d0cde1"/>
      <path id="Pfad_1188-2" data-name="Pfad 1188" d="M246.836,542.615s8.456,17.517,12.081,15.7-9.06-19.933-9.06-19.933Z" transform="translate(-118.656 -685.856)" fill="#a0616a"/>
      <path id="Pfad_1189-2" data-name="Pfad 1189" d="M128.759,352.77,96.745,379.347s-12.081,8.456,10.268,14.5,24.161,9.664,24.161,9.664,2.416-7.852,5.436-6.644L110.638,384.18l21.141-12.685Z" transform="translate(-1.485 -544.031)" fill="#d0cde1"/>
      <path id="Pfad_1190-2" data-name="Pfad 1190" d="M164.99,150.526a85.279,85.279,0,0,0,8.551-4.535c-.222-6.582.589-12.557,2.961-15.724,1.332-3.024,4.128-6.051,6.318-8.435,5.379-5.855,17.272-9.123,19.382-6.2,15.955.315,17.634,12.821,17.634,12.821-.083,5.231-5.52,5.4-10.282,5.206.426,3.571-.71,7.282-4,8.927-6.294,3.147-8.182,7.238-5.035,10.07s8.811,10.384,1.259,12.272-8.5,5.664-6.294,7.238-5.035-2.832-5.035-2.832-1.259,7.552-7.867,5.664a3.975,3.975,0,0,1-1.766-1.251c-1.785,1.961-3.377,3.12-4.577,3.127-6.873.036-6.048-7.576-6.048-7.576s-8.157,2.291-5.612,1.37,2.654-4.812-4.109-8.666S161.2,152.4,164.99,150.526Z" transform="translate(-50.583 -362.01)" fill="#2f2e41"/>
    </g>
  </g>
</svg>
