<svg id="undraw_personal_information_962o" xmlns="http://www.w3.org/2000/svg" width="295.631" height="205" viewBox="0 0 295.631 205">
  <path id="Pfad_1373" data-name="Pfad 1373" d="M52,70V172.536H154.536V70Zm52.1,100.307a2.786,2.786,0,1,1,2.786-2.786A2.786,2.786,0,0,1,104.1,170.307Z" transform="translate(-52 -70)" fill="#683b89"/>
  <path id="Pfad_1374" data-name="Pfad 1374" d="M671.9,258.568c0,43.986-33.294,80.487-76.93,87.393a96.084,96.084,0,0,1-15.018,1.176c-50.806,0-91.97-39.668-91.948-88.587C488,209.654,529.168,170,579.948,170a93.925,93.925,0,0,1,53.5,16.533C656.728,202.6,671.9,228.876,671.9,258.568Z" transform="translate(-376.265 -142.137)" fill="#683b89"/>
  <path id="Pfad_1375" data-name="Pfad 1375" d="M908.771,149.89l7.986-2.49.689-7.033s-19.423-7.337-25.632,5.641a20.594,20.594,0,0,1-7.614,8.977,14.037,14.037,0,0,1-12.216,1.052c-13.461-4.916-16.631,9.064-16.631,9.064s1.164,1.99,9.461,2.479c4.129.244,7.508,3.351,9.861,6.412a10.3,10.3,0,0,0,17.927-3.206q.061-.19.121-.385c3.969-13,22.04-2.65,22.04-2.65l1.154-11.777Z" transform="translate(-641.262 -119.27)" fill="#2f2e41"/>
  <circle id="Ellipse_111" data-name="Ellipse 111" cx="9.781" cy="9.781" r="9.781" transform="translate(205.797 41.378)" fill="#2f2e41"/>
  <circle id="Ellipse_112" data-name="Ellipse 112" cx="26.082" cy="26.082" r="26.082" transform="translate(184.486 50.437)" fill="#2f2e41"/>
  <circle id="Ellipse_113" data-name="Ellipse 113" cx="17.931" cy="17.931" r="17.931" transform="translate(192.003 67.624)" fill="#a0616a"/>
  <path id="Pfad_1376" data-name="Pfad 1376" d="M805.955,429.884l3.26,17.388,16.3-2.173s-2.717-13.584-1.087-17.388Z" transform="translate(-603.045 -331.547)" fill="#a0616a"/>
  <path id="Pfad_1377" data-name="Pfad 1377" d="M465.038,661.893s-18.475-10.867-20.1-3.26S463.408,669.5,463.408,669.5Z" transform="translate(-339.123 -498.24)" fill="#a0616a"/>
  <path id="Pfad_1378" data-name="Pfad 1378" d="M870.781,281.252s-13.041-9.781-18.475-5.977,14.671,16.3,16.845,15.215S870.781,281.252,870.781,281.252Z" transform="translate(-636.24 -219.413)" fill="#a0616a"/>
  <path id="Pfad_1379" data-name="Pfad 1379" d="M744.946,456.963l-19.562,3.26v8.694s-18.475,5.977-18.475,8.694-4.89,13.041-4.89,13.041-11.954,8.694-2.173,19.018c0,0,3.8,5.977,1.087,6.521s-8.694,2.173-5.977,4.347,43.47,16.845,46.73,15.758,28.255-39.666,28.255-49.447-10.324-23.909-10.324-23.909l-11.954-1.63Z" transform="translate(-522.904 -355.903)" fill="#d0cde1"/>
  <path id="Pfad_1380" data-name="Pfad 1380" d="M569.653,529.017s-7.607-1.087-10.324,8.151-11.954,39.123-11.954,39.123-33.146-.543-41.84-8.694l-3.8,12.5s49.99,17.931,54.337,14.671S579.433,538.8,579.433,538.8Z" transform="translate(-381.787 -407.852)" fill="#d0cde1"/>
  <path id="Pfad_1381" data-name="Pfad 1381" d="M911.006,346.363l1.63-1.63s20.648-22.278,20.1-27.712c0,0-10.867-13.584-24.452-9.781,0,0-5.977-14.671,3.26-14.128s43.47-1.63,42.927,14.128-33.146,64.118-33.146,64.118Z" transform="translate(-678.077 -234.083)" fill="#d0cde1"/>
  <path id="Pfad_1382" data-name="Pfad 1382" d="M715.024,724.275a92.623,92.623,0,0,1-15.018,1.22,91.521,91.521,0,0,1-45.576-12.073l3.229-6.539,10.279-20.831.457-.922,7.487,2.257,37.612,11.329.1,1.736Z" transform="translate(-493.259 -520.495)" fill="#2f2e41"/>
  <ellipse id="Ellipse_114" data-name="Ellipse 114" cx="11.411" cy="17.931" rx="11.411" ry="17.931" transform="translate(190.02 77.24) rotate(-71.208)" fill="#2f2e41"/>
  <path id="Pfad_1383" data-name="Pfad 1383" d="M377.711,397.828c-5.575-8.568-18.928-13.993-29.851-9.1-4.917,2.2-8.825,6.095-10.066,10.7-1.441,5.346,1.594,10.443,4.726,14.935a83.379,83.379,0,0,1,4.969,7.4c1.457,2.663,2.5,5.74,1.4,8.637-.988,2.61-3.463,4.508-6.174,5.9a50.8,50.8,0,0,1-9.486,3.552,65.9,65.9,0,0,1-21.179,2.3,68.226,68.226,0,0,1-10.555-1.431c-3.679-.787-7.289-1.784-10.974-2.552-6.152-1.282-13.167-1.919-19,.657-5.668,2.5-8.2,7.736-8.989,12.827-1.449,9.4,3,19.158,11.019,25.742a32.643,32.643,0,0,0,13.97,6.836c4.6.932,10.515.872,14.178-2.015,4.088-3.222,3.128-8.388-.12-11.787-4.145-4.337-11.166-5.379-17.431-5.484-7.127-.12-14.248.77-21.371.217a38.115,38.115,0,0,1-10.106-2.045,26.332,26.332,0,0,1-7.616-4.323,27.238,27.238,0,0,1-8.838-13.322c-1.776-5.97-1.389-12.243-.01-18.239a71.793,71.793,0,0,1,2.833-9.147c.476-1.266,2.86-.725,2.38.55-4.245,11.292-6.612,24.348,1.59,34.832a24.985,24.985,0,0,0,14.786,8.928c7.1,1.48,14.548.748,21.764.528,6.862-.209,14.4.016,20.28,3.369,4.826,2.75,8.2,7.98,6.742,12.918-1.406,4.762-6.862,7.176-12.318,7.549a30.725,30.725,0,0,1-16.166-3.741c-10-5.243-16.651-14.462-18.043-24.237a23.353,23.353,0,0,1,2.766-15.2,16.156,16.156,0,0,1,6.519-6.094,24.5,24.5,0,0,1,9.287-2.4c7.383-.57,14.477,1.556,21.48,3.182a69.858,69.858,0,0,0,10.954,1.754,65.16,65.16,0,0,0,10.807-.148,62.076,62.076,0,0,0,10.472-1.949,46.205,46.205,0,0,0,9.506-3.6c2.627-1.409,4.9-3.427,5.027-6.175.14-2.982-1.652-5.771-3.357-8.284-3.368-4.966-7.526-9.823-8.406-15.636-.769-5.085,1.67-10.1,5.882-13.724a24.418,24.418,0,0,1,16.346-5.688,29.3,29.3,0,0,1,16.831,5.931,24.4,24.4,0,0,1,5.675,6.049C380.6,397.953,378.473,399,377.711,397.828Z" transform="translate(-190.761 -324.192)" fill="#3f3d56"/>
  <path id="Pfad_1384" data-name="Pfad 1384" d="M219.406,104a12.2,12.2,0,0,0-6.436,22.57c.035.022.073.041.109.063a6.685,6.685,0,0,1,12.654,0c.036-.022.073-.041.109-.063A12.2,12.2,0,0,0,219.406,104Zm0,16.926a4.33,4.33,0,1,1,4.33-4.33A4.33,4.33,0,0,1,219.406,120.926Z" transform="translate(-168.138 -94.248)" fill="#fff"/>
  <rect id="Rechteck_103" data-name="Rechteck 103" width="30" height="4" rx="2" transform="translate(36.22 59.75)" fill="#fff"/>
  <rect id="Rechteck_104" data-name="Rechteck 104" width="30" height="4" rx="2" transform="translate(36.22 69.425)" fill="#fff"/>
  <rect id="Rechteck_105" data-name="Rechteck 105" width="30" height="4" rx="2" transform="translate(36.22 50.075)" fill="#fff"/>
  <rect id="Rechteck_106" data-name="Rechteck 106" width="30" height="4" rx="2" transform="translate(36.22 40.401)" fill="#fff"/>
</svg>
