<svg xmlns="http://www.w3.org/2000/svg" width="95.17" height="82.089" viewBox="0 0 95.17 82.089">
  <path id="arrow" d="M77.9,54.638a68.816,68.816,0,0,0-21.7-27.5c-9.5-7.2-21.1-12.5-33.1-13.6a31.86,31.86,0,0,0-14.4,1.8c4.6.9,9.1,1.8,13.7,2.7,1,.2,1.2,1.6,1.2,2.4,0,.5-.2,2.6-1.2,2.4-6.5-1.3-13.1-2.6-19.6-3.9a.758.758,0,0,1-.4-.2,2.651,2.651,0,0,1-.6.5c-1.7,1.4-2.4-3.2-1.2-4.2A63.952,63.952,0,0,0,13.2.638c.5-.8,1.2-.9,1.7,0a3.709,3.709,0,0,1,0,3.4c-1.2,1.9-2.5,3.6-3.8,5.4,9.1-2.5,19.5-.3,28,3a73.715,73.715,0,0,1,29.5,21,72.609,72.609,0,0,1,11,17.5,4.45,4.45,0,0,1,0,3.4C79.2,55.438,78.3,55.538,77.9,54.638Z" transform="matrix(-0.921, 0.391, -0.391, -0.921, 95.17, 50.854)"/>
</svg>
