<svg xmlns="http://www.w3.org/2000/svg" width="345" height="309.615" viewBox="0 0 345 309.615">
  <path id="bg_shape" d="M488.049,192.5c0-21.557,5.106-39.3,13.963-54.5a108.878,108.878,0,0,1,9.923-14.251c32.559-39.822,90.706-57.359,147.8-67.418C827.783,25.517,838.727,89.6,831.433,192.5c-2.942,41.52-19.111,79.553-44.8,108.673A170.518,170.518,0,0,1,769.2,318.314c-29.163,24.836-66.841,39.865-109.458,39.865-73.117,0-135.557-44.1-160.313-106.246A160.491,160.491,0,0,1,488.049,192.5Z" transform="translate(-488.049 -48.565)" fill="#e0e9f1" opacity="0.5"/>
</svg>
