<svg xmlns="http://www.w3.org/2000/svg" xmlns:xlink="http://www.w3.org/1999/xlink" width="300" height="200" viewBox="0 0 300 200"><defs><clipPath id="b"><rect width="300" height="200"/></clipPath></defs><g id="a" clip-path="url(#b)"><rect width="300" height="200" fill="#fff"/><g transform="translate(-26.352 2)"><rect width="88.654" height="128.74" rx="13.435" transform="translate(26.558 20.214) rotate(-12.753)" fill="#3f3d56"/><circle cx="2.558" cy="2.558" r="2.558" transform="translate(32.698 34.528)" fill="#fff"/><circle cx="2.558" cy="2.558" r="2.558" transform="translate(35.255 43.907)" fill="#fff"/><circle cx="2.558" cy="2.558" r="2.558" transform="translate(51.88 112.537)" fill="#fff"/><circle cx="2.558" cy="2.558" r="2.558" transform="translate(54.438 121.915)" fill="#fff"/><rect width="53.232" height="8.872" transform="translate(55.202 61.233) rotate(-12.753)" fill="#f5f5f5"/><rect width="88.654" height="128.74" transform="translate(89.556 65.199) rotate(-12.753)" fill="#683b89"/><rect width="88.654" height="128.74" transform="translate(180.739 44.562) rotate(-12.753)" fill="#3f3d56"/><rect width="53.232" height="8.872" transform="translate(108.061 75.3) rotate(-12.753)" fill="#f5f5f5"/><rect width="70.976" height="2.218" transform="translate(104.14 98.17) rotate(-12.753)" fill="#f5f5f5"/><rect width="70.976" height="2.218" transform="translate(105.283 103.218) rotate(-12.753)" fill="#f5f5f5"/><rect width="70.976" height="2.218" transform="translate(106.425 108.265) rotate(-12.753)" fill="#f5f5f5"/><rect width="34.009" height="2.218" transform="translate(107.567 113.313) rotate(-12.753)" fill="#f5f5f5"/><rect width="39.185" height="2.218" transform="translate(108.71 118.361) rotate(-12.753)" fill="#f5f5f5"/><rect width="70.976" height="2.218" transform="translate(109.852 123.408) rotate(-12.753)" fill="#f5f5f5"/><rect width="70.976" height="2.218" transform="translate(110.995 128.456) rotate(-12.753)" fill="#f5f5f5"/><rect width="65.8" height="2.218" transform="translate(112.137 133.503) rotate(-12.753)" fill="#f5f5f5"/><rect width="70.976" height="2.218" transform="translate(113.279 138.551) rotate(-12.753)" fill="#f5f5f5"/><rect width="36.967" height="2.218" transform="translate(114.422 143.599) rotate(-12.753)" fill="#f5f5f5"/><rect width="39.185" height="2.218" transform="translate(209.469 128.152) rotate(-12.753)" fill="#683b89" opacity="0.3"/><rect width="70.976" height="2.218" transform="translate(210.612 133.199) rotate(-12.753)" fill="#683b89" opacity="0.3"/><rect width="70.976" height="2.218" transform="translate(211.754 138.247) rotate(-12.753)" fill="#683b89" opacity="0.3"/><rect width="65.8" height="2.218" transform="translate(212.896 143.294) rotate(-12.753)" fill="#683b89" opacity="0.3"/><rect width="70.976" height="2.218" transform="translate(214.039 148.342) rotate(-12.753)" fill="#683b89" opacity="0.3"/><rect width="42.881" height="29.573" transform="translate(142.339 146.377) rotate(-12.753)" fill="#f5f5f5"/><rect width="42.881" height="29.573" transform="translate(191.844 50.274) rotate(-12.753)" fill="#683b89" opacity="0.3"/><rect width="42.881" height="29.573" transform="translate(232.779 80.426) rotate(-12.753)" fill="#683b89" opacity="0.3"/><g transform="translate(213.439)" opacity="0.5"><rect width="1.279" height="7.247" transform="translate(2.984)" fill="#47e6b1"/><rect width="1.279" height="7.247" transform="translate(7.247 2.984) rotate(90)" fill="#47e6b1"/></g><circle cx="2.558" cy="2.558" r="2.558" transform="translate(41.223 191.52)" fill="#f55f44" opacity="0.5"/><circle cx="2.558" cy="2.558" r="2.558" transform="translate(132.447)" fill="#4d8af0" opacity="0.5"/><circle cx="2.558" cy="2.558" r="2.558" transform="translate(193.062 192.651)" fill="#47e6b1" opacity="0.5"/><rect width="88.654" height="128.74" rx="13.435" transform="translate(213.267 74.35) rotate(-12.753)" fill="#683b89"/><circle cx="2.558" cy="2.558" r="2.558" transform="translate(219.407 88.666)" fill="#fff"/><circle cx="2.558" cy="2.558" r="2.558" transform="translate(221.965 98.044)" fill="#fff"/><circle cx="2.558" cy="2.558" r="2.558" transform="translate(238.59 166.674)" fill="#fff"/><circle cx="2.558" cy="2.558" r="2.558" transform="translate(241.147 176.052)" fill="#fff"/><rect width="53.232" height="8.872" transform="translate(241.911 115.369) rotate(-12.753)" fill="#f5f5f5"/></g></g></svg>
