<svg xmlns="http://www.w3.org/2000/svg" xmlns:xlink="http://www.w3.org/1999/xlink" width="150" height="40" viewBox="0 0 150 40">
  <defs>
    <clipPath id="clip-logo.svg">
      <rect width="150" height="40"/>
    </clipPath>
  </defs>
  <g id="logo.svg" clip-path="url(#clip-logo.svg)">
    <rect width="150" height="40" fill="#fff"/>
    <g id="Gruppe_104" data-name="Gruppe 104" transform="translate(-38 -261)">
      <g id="Gruppe_96" data-name="Gruppe 96" transform="translate(69.992 265.84)">
        <path id="Pfad_1410" data-name="Pfad 1410" d="M11.624-14.337q1.462-2.471,2.784-4.942t2.436-4.976H22.83q-1.984,3.9-4.106,7.552T14.234-9.36V-.138H8.806V-9.291Q6.439-12.98,4.3-16.668T.175-24.255h6.3q1.114,2.506,2.4,4.976T11.624-14.337ZM39.5-9.326a11.9,11.9,0,0,1-.626,3.95,8.582,8.582,0,0,1-1.81,3.062A8.144,8.144,0,0,1,34.227-.347a9.465,9.465,0,0,1-3.706.7,9.371,9.371,0,0,1-3.671-.7,8.144,8.144,0,0,1-2.836-1.966,9,9,0,0,1-1.844-3.062,11.334,11.334,0,0,1-.661-3.95,10.931,10.931,0,0,1,.679-3.932,8.918,8.918,0,0,1,1.879-3.028,8.44,8.44,0,0,1,2.854-1.949,9.188,9.188,0,0,1,3.6-.7,9.279,9.279,0,0,1,3.637.7,8.257,8.257,0,0,1,2.836,1.949,8.844,8.844,0,0,1,1.844,3.028A11.189,11.189,0,0,1,39.5-9.326Zm-5.29,0a6.519,6.519,0,0,0-.957-3.776,3.129,3.129,0,0,0-2.732-1.375A3.174,3.174,0,0,0,27.772-13.1,6.43,6.43,0,0,0,26.8-9.326a6.6,6.6,0,0,0,.974,3.811,3.149,3.149,0,0,0,2.749,1.409,3.106,3.106,0,0,0,2.732-1.409A6.69,6.69,0,0,0,34.21-9.326ZM59.127-.765a28.9,28.9,0,0,1-3.41.713,28.025,28.025,0,0,1-4.385.331,10.412,10.412,0,0,1-3.88-.626A5.89,5.89,0,0,1,45-2.1,6.859,6.859,0,0,1,43.71-4.8a14.506,14.506,0,0,1-.383-3.445v-10.2h5.185v9.57a7.417,7.417,0,0,0,.661,3.619A2.63,2.63,0,0,0,51.645-4.14q.557,0,1.183-.052t1.114-.122V-18.443h5.185Z" transform="translate(-0.175 27.143)" fill="#00c5aa"/>
        <path id="Pfad_1411" data-name="Pfad 1411" d="M9.758.193A12.954,12.954,0,0,1,6.087-.294a5.438,5.438,0,0,1-2.227-1.27A4.214,4.214,0,0,1,2.746-3.548a10.7,10.7,0,0,1-.3-2.627V-26.325l5.185-.835V-7.219a6.832,6.832,0,0,0,.1,1.253,2.162,2.162,0,0,0,.4.94,2.124,2.124,0,0,0,.853.626,4.673,4.673,0,0,0,1.5.313Zm8.874-.348H13.447V-18.46h5.185Zm.487-23.595A2.846,2.846,0,0,1,18.2-21.5a3.172,3.172,0,0,1-2.175.818,3.172,3.172,0,0,1-2.175-.818,2.846,2.846,0,0,1-.922-2.245,2.846,2.846,0,0,1,.922-2.245,3.172,3.172,0,0,1,2.175-.818,3.172,3.172,0,0,1,2.175.818A2.846,2.846,0,0,1,19.119-23.75Zm4.211.731,5.185-.835v5.394h6.229v4.315H28.516v6.438A5.122,5.122,0,0,0,29.09-5.1a2.465,2.465,0,0,0,2.314.974,9.907,9.907,0,0,0,1.723-.157,8.879,8.879,0,0,0,1.618-.435l.731,4.037a14.753,14.753,0,0,1-2.088.661,12.167,12.167,0,0,1-2.819.278,9.279,9.279,0,0,1-3.515-.574,5.514,5.514,0,0,1-2.227-1.6A5.959,5.959,0,0,1,23.661-4.4a14.689,14.689,0,0,1-.331-3.236ZM55.556-18.46q-1.566,5.29-3.271,9.918T48.561.437A20.333,20.333,0,0,1,47.1,3.1a8.187,8.187,0,0,1-1.6,1.81,5.634,5.634,0,0,1-1.966,1.044,8.889,8.889,0,0,1-2.558.331,10.435,10.435,0,0,1-2.245-.226,9.961,9.961,0,0,1-1.688-.5l.9-4.141a8.843,8.843,0,0,0,1.427.383,8.041,8.041,0,0,0,1.322.1,2.9,2.9,0,0,0,2.14-.748A6.011,6.011,0,0,0,44.106-.92q-1.775-3.48-3.55-7.813a97.391,97.391,0,0,1-3.341-9.727h5.5q.348,1.357.818,2.941t.992,3.2q.522,1.618,1.061,3.149t1.027,2.784q.452-1.253.94-2.784t.957-3.149q.47-1.618.9-3.2T50.2-18.46Z" transform="translate(62.453 27.16)" fill="#683b89"/>
      </g>
      <g id="Gruppe_95" data-name="Gruppe 95" transform="translate(38 267.796)">
        <path id="Icon_awesome-brain" data-name="Icon awesome-brain" d="M28.791,15.15a3.966,3.966,0,0,0-2.008-3.444A3.922,3.922,0,0,0,27.2,9.967,3.987,3.987,0,0,0,24.72,6.279a3.16,3.16,0,0,0-3.1-3.887c-.04,0-.075.01-.11.01a3.183,3.183,0,0,0-6.269.787V21.927a3.58,3.58,0,0,0,6.977,1.136,3.379,3.379,0,0,0,.6.06A3.586,3.586,0,0,0,26.4,19.535a3.652,3.652,0,0,0-.07-.7A3.987,3.987,0,0,0,28.791,15.15Z" transform="translate(-0.087 0)" fill="#683b89"/>
        <path id="Icon_awesome-brain-2" data-name="Icon awesome-brain" d="M10.366,0a3.18,3.18,0,0,0-3.08,2.4c-.04,0-.07-.01-.11-.01A3.192,3.192,0,0,0,3.987,5.581a2.939,2.939,0,0,0,.085.7,3.952,3.952,0,0,0-2.063,5.427,3.972,3.972,0,0,0,.453,7.126,3.652,3.652,0,0,0-.07.7A3.586,3.586,0,0,0,5.98,23.123a3.379,3.379,0,0,0,.6-.06,3.58,3.58,0,0,0,6.977-1.136V3.189A3.192,3.192,0,0,0,10.366,0Z" transform="translate(0 0)" fill="#00c5aa"/>
      </g>
    </g>
  </g>
</svg>
