<svg xmlns="http://www.w3.org/2000/svg" xmlns:xlink="http://www.w3.org/1999/xlink" width="300" height="200" viewBox="0 0 300 200">
  <defs>
    <clipPath id="clip-path">
      <path id="Pfad_1225" data-name="Pfad 1225" d="M617.913,89.916a39.745,39.745,0,0,1-5.26,20.531,41.014,41.014,0,0,1-3.738,5.368c-12.265,15-35.069,23.212-55.678,36.512-60.837,39.257-67.426-23.648-64.679-62.411a69.163,69.163,0,0,1,16.876-40.938A64.24,64.24,0,0,1,512,42.52,62.919,62.919,0,0,1,553.237,27.5c27.544,0,51.065,16.613,60.391,40.024a60.458,60.458,0,0,1,4.285,22.39Z" transform="translate(-488.049 -27.503)" fill="#683b89"/>
    </clipPath>
    <clipPath id="clip-SVG_export">
      <rect width="300" height="200"/>
    </clipPath>
  </defs>
  <g id="SVG_export" clip-path="url(#clip-SVG_export)">
    <rect width="300" height="200" fill="#fff"/>
    <g id="mirror.svg" transform="translate(-27.756 -69)">
      <g id="Gruppe_16" data-name="Gruppe 16" transform="translate(148.598 69)">
        <path id="Pfad_1166" data-name="Pfad 1166" d="M617.913,89.916a39.745,39.745,0,0,1-5.26,20.531,41.014,41.014,0,0,1-3.738,5.368c-12.265,15-35.069,23.212-55.678,36.512-60.837,39.257-67.426-23.648-64.679-62.411a69.163,69.163,0,0,1,16.876-40.938A64.24,64.24,0,0,1,512,42.52,62.919,62.919,0,0,1,553.237,27.5c27.544,0,51.065,16.613,60.391,40.024a60.458,60.458,0,0,1,4.285,22.39Z" transform="translate(-480.076 -27.503)" fill="#683b89"/>
        <path id="Pfad_1167" data-name="Pfad 1167" d="M624.927,88.423l-61.582,7.409a64.234,64.234,0,0,1,6.569-6.458Z" transform="translate(-539.602 -74.356)" fill="#d0cde1"/>
        <path id="Pfad_1168" data-name="Pfad 1168" d="M839.543,383.479a41.028,41.028,0,0,1-3.738,5.368L783.054,382.5Z" transform="translate(-708.581 -300.534)" fill="#d0cde1"/>
        <path id="Pfad_1170" data-name="Pfad 1170" d="M473.449,77.969c0,.159,0,.316-.018.471a6.464,6.464,0,1,1-12.164-3.489,5.942,5.942,0,0,1,.476-.764,6.463,6.463,0,0,1,11.683,3.256C473.442,77.616,473.449,77.791,473.449,77.969Z" transform="translate(-460.518 -61.344)" fill="#683b89"/>
        <path id="Pfad_1171" data-name="Pfad 1171" d="M484.216,97.2c0,.159,0,.316-.018.471L474.519,96.5l9.675.166C484.209,96.844,484.216,97.02,484.216,97.2Z" transform="translate(-471.286 -80.572)" fill="#d0cde1"/>
        <path id="Pfad_1172" data-name="Pfad 1172" d="M474.416,113.615l-8.954,1.078a6.48,6.48,0,0,1-.683-.912Z" transform="translate(-463.795 -93.732)" fill="#d0cde1"/>
        <path id="Pfad_1173" data-name="Pfad 1173" d="M471.092,82.615l-7.333.882a5.94,5.94,0,0,1,.476-.764Z" transform="translate(-463.01 -69.89)" fill="#d0cde1"/>
        <path id="Pfad_1174" data-name="Pfad 1174" d="M859.692,572c-.075.141-.152.277-.237.407a6.464,6.464,0,1,1-9.109-8.784,5.938,5.938,0,0,1,.778-.452,6.463,6.463,0,0,1,8.794,8.353C859.852,571.687,859.776,571.845,859.692,572Z" transform="translate(-758.159 -438.976)" fill="#683b89"/>
        <path id="Pfad_1175" data-name="Pfad 1175" d="M872.8,586.45c-.075.141-.152.277-.237.407l-8-5.565,8.468,4.682C872.959,586.135,872.883,586.293,872.8,586.45Z" transform="translate(-771.267 -453.424)" fill="#d0cde1"/>
        <path id="Pfad_1176" data-name="Pfad 1176" d="M856.188,596.847l-8.415-3.245a6.477,6.477,0,0,1-.176-1.126Z" transform="translate(-758.221 -462.025)" fill="#d0cde1"/>
        <path id="Pfad_1177" data-name="Pfad 1177" d="M866.666,568.506l-6.891-2.659a5.94,5.94,0,0,1,.778-.452Z" transform="translate(-767.588 -441.197)" fill="#d0cde1"/>
        <path id="Pfad_1178" data-name="Pfad 1178" d="M1061.616,114.457c.111.114.218.23.316.35a6.464,6.464,0,1,1-11.144,5.995,5.962,5.962,0,0,1-.193-.879,6.463,6.463,0,0,1,10.637-5.827C1061.364,114.208,1061.492,114.329,1061.616,114.457Z" transform="translate(-914.293 -92.879)" fill="#683b89"/>
        <path id="Pfad_1179" data-name="Pfad 1179" d="M1073.828,119.754c.111.114.218.23.316.35l-7.742,5.925,7.042-6.636C1073.576,119.506,1073.7,119.626,1073.828,119.754Z" transform="translate(-926.505 -98.176)" fill="#d0cde1"/>
        <path id="Pfad_1180" data-name="Pfad 1180" d="M1078.661,138.039,1073,145.062a6.481,6.481,0,0,1-1.126-.176Z" transform="translate(-930.716 -112.516)" fill="#d0cde1"/>
        <path id="Pfad_1181" data-name="Pfad 1181" d="M1055.658,123.526l-4.634,5.752a5.962,5.962,0,0,1-.193-.879Z" transform="translate(-914.53 -101.354)" fill="#d0cde1"/>
      </g>
      <g id="Gruppe_maskieren_1" data-name="Gruppe maskieren 1" transform="translate(156.57 69)" clip-path="url(#clip-path)">
        <g id="Gruppe_15" data-name="Gruppe 15" transform="translate(-3.66 22.055)" opacity="0.5">
          <path id="Pfad_1182" data-name="Pfad 1182" d="M579.772,636.956s-14.188.591-14.188,4.138,15.961,0,15.961,0Z" transform="translate(-565.585 -516.333)" fill="#a0616a"/>
          <ellipse id="Ellipse_47" data-name="Ellipse 47" cx="14.779" cy="14.779" rx="14.779" ry="14.779" transform="translate(50.248 8.305)" fill="#a0616a"/>
          <path id="Pfad_1190" data-name="Pfad 1190" d="M211.42,149.759a83.461,83.461,0,0,1-8.368-4.438c.217-6.441-.576-12.289-2.9-15.388-1.3-2.959-4.04-5.922-6.184-8.255-5.264-5.73-16.9-8.928-18.968-6.065-15.614.308-17.258,12.548-17.258,12.548.081,5.119,5.4,5.281,10.063,5.095-.417,3.495,9.195,2.814,12.416,4.425a4.2,4.2,0,0,1,2.527,3.8c.244,3.431-3.866,8.355-6.1,10.364-3.08,2.772-8.623,10.163-1.232,12.011s8.315,5.543,6.159,7.083,4.928-2.772,4.928-2.772,1.232,7.391,7.7,5.543a3.891,3.891,0,0,0,1.728-1.225c1.747,1.919,3.3,3.054,4.479,3.06,6.726.036,5.92-7.414,5.92-7.414s7.984,2.242,5.492,1.341-2.6-4.709,4.021-8.482S215.133,151.6,211.42,149.759Z" transform="translate(-108.382 -114.545)" fill="#2f2e41"/>
          <path id="Pfad_1184" data-name="Pfad 1184" d="M274.472,229.879s4.138,18.326,10.641,23.646-25.419,0-25.419,0,7.094-11.823,1.773-17.143S274.472,229.879,274.472,229.879Z" transform="translate(-199.396 -203.249)" fill="#a0616a"/>
          <path id="Pfad_1185" data-name="Pfad 1185" d="M222.17,362.649l9.807,1.088,27.435,3.05s.13-.349.361-.981c1.992-5.433,11.587-31.869,12.645-39.808,1.182-8.867-11.232-19.508-11.232-19.508s-11.823-2.365-15.37-2.365-17.734,5.32-17.734,5.32l-5.291,47.593-.455,4.12Z" transform="translate(-177.243 -260.352)" fill="#d0cde1"/>
          <path id="Pfad_1187" data-name="Pfad 1187" d="M409.57,326.463s5.911,7.685,1.182,21.281-11.232,34.878-11.232,34.878l-34.287,20.1-4.729-5.911,31.922-24.828s1.182-44.927,7.094-46.7A12.114,12.114,0,0,1,409.57,326.463Z" transform="translate(-349.273 -276.186)" fill="#d0cde1"/>
          <path id="Pfad_1183" data-name="Pfad 1183" d="M226.408,622.013l26.6-1.773,1.182-14.188,5.911,12.414,26.011-3.547c-.591-22.464-10.05-44.336-10.641-47.292s-2-15.169-2-15.169c-2.583-5.48-16.121-5.994-26.732-5.5-4.4.2-8.3.579-10.706.851-1.59.177-2.53.307-2.53.307-4.238,4.369-6.97,10.321-8.649,16.972C218.8,589.051,226.408,622.013,226.408,622.013Z" transform="translate(-190.939 -447.005)" fill="#2f2e41"/>
          <path id="Pfad_1188" data-name="Pfad 1188" d="M259.3,542.525s-8.276,17.143-11.823,15.37,8.867-19.508,8.867-19.508Z" transform="translate(-169.737 -440.523)" fill="#a0616a"/>
          <path id="Pfad_1189" data-name="Pfad 1189" d="M101.17,352.77,132.5,378.781s11.823,8.276-10.05,14.188-23.646,9.458-23.646,9.458-2.365-7.685-5.32-6.5L118.9,383.51,98.214,371.1Z" transform="translate(-10.724 -297.765)" fill="#d0cde1"/>
        </g>
      </g>
      <g id="Gruppe_14" data-name="Gruppe 14" transform="translate(57 93.991)">
        <path id="Pfad_1182-2" data-name="Pfad 1182" d="M567.358,636.956s14.188.591,14.188,4.138-15.961,0-15.961,0Z" transform="translate(-456.578 -516.333)" fill="#a0616a"/>
        <path id="Pfad_1183-2" data-name="Pfad 1183" d="M282.22,622.013l-26.6-1.773-1.182-14.188-5.911,12.414-26.011-3.547c.591-22.464,10.05-44.336,10.641-47.292s2-15.169,2-15.169c2.583-5.48,16.121-5.994,26.732-5.5,4.4.2,8.3.579,10.706.851,1.59.177,2.53.307,2.53.307,4.238,4.369,6.97,10.321,8.649,16.972C289.828,589.051,282.22,622.013,282.22,622.013Z" transform="translate(-192.721 -447.005)" fill="#2f2e41"/>
        <circle id="Ellipse_47-2" data-name="Ellipse 47" cx="14.779" cy="14.779" r="14.779" transform="translate(45.162 8.305)" fill="#a0616a"/>
        <path id="Pfad_1184-2" data-name="Pfad 1184" d="M271.207,229.879s-4.138,18.326-10.641,23.646,25.419,0,25.419,0-7.094-11.823-1.773-17.143S271.207,229.879,271.207,229.879Z" transform="translate(-221.316 -203.249)" fill="#a0616a"/>
        <path id="Pfad_1185-2" data-name="Pfad 1185" d="M272.5,362.649l-9.807,1.088-27.435,3.05s-.13-.349-.361-.981c-1.992-5.433-11.587-31.869-12.645-39.808-1.182-8.867,11.232-19.508,11.232-19.508s11.823-2.365,15.37-2.365,17.735,5.32,17.735,5.32l5.291,47.593.455,4.12Z" transform="translate(-192.457 -260.352)" fill="#00c5aa"/>
        <path id="Pfad_1186" data-name="Pfad 1186" d="M382.068,461.164l-19.88-11.652s-.349-1.135-.94-3.05c-.3-.958-.656-2.116-1.064-3.429-2.294-7.366-6.142-19.52-9.228-28.4-4.729-13.6,18.326,24.237,18.326,24.237l1.153.893.455,4.12c1.59.177,2.53.307,2.53.307C377.658,448.561,380.389,454.513,382.068,461.164Z" transform="translate(-291.015 -343.077)" opacity="0.15"/>
        <path id="Pfad_1187-2" data-name="Pfad 1187" d="M363.521,326.463s-5.911,7.685-1.182,21.281,11.232,34.878,11.232,34.878l34.287,20.1,4.729-5.911-31.922-24.828s-1.182-44.927-7.094-46.7A12.114,12.114,0,0,0,363.521,326.463Z" transform="translate(-298.851 -276.186)" fill="#00c5aa"/>
        <path id="Pfad_1188-2" data-name="Pfad 1188" d="M246.836,542.525s8.276,17.143,11.823,15.37-8.867-19.508-8.867-19.508Z" transform="translate(-211.428 -440.523)" fill="#a0616a"/>
        <path id="Pfad_1189-2" data-name="Pfad 1189" d="M128.007,352.77,96.676,378.781s-11.823,8.276,10.05,14.188,23.646,9.458,23.646,9.458,2.365-7.685,5.32-6.5L110.272,383.51l20.69-12.414Z" transform="translate(-93.485 -297.765)" fill="#00c5aa"/>
        <path id="Pfad_1190-2" data-name="Pfad 1190" d="M164.836,149.759a83.461,83.461,0,0,0,8.368-4.438c-.217-6.441.576-12.289,2.9-15.388,1.3-2.959,4.04-5.922,6.184-8.255,5.264-5.73,16.9-8.928,18.968-6.065,15.614.308,17.258,12.548,17.258,12.548-.081,5.119-5.4,5.281-10.063,5.095.417,3.495-.695,7.126-3.916,8.737-6.159,3.08-8.007,7.083-4.928,9.855s8.623,10.163,1.232,12.011-8.315,5.543-6.159,7.083-4.928-2.772-4.928-2.772-1.232,7.391-7.7,5.543a3.891,3.891,0,0,1-1.728-1.225c-1.747,1.919-3.3,3.054-4.479,3.06-6.726.036-5.92-7.414-5.92-7.414s-7.984,2.242-5.492,1.341,2.6-4.709-4.021-8.482S161.123,151.6,164.836,149.759Z" transform="translate(-142.906 -114.545)" fill="#2f2e41"/>
      </g>
    </g>
  </g>
</svg>
