<svg xmlns="http://www.w3.org/2000/svg" width="202.642" height="201.5" viewBox="0 0 202.642 201.5">
  <g id="undraw_in_thought_gjsf_1_" data-name="undraw_in_thought_gjsf(1)" transform="translate(0 0)">
    <path id="Pfad_1080" data-name="Pfad 1080" d="M749.9,256.8q3.641,1.922,7.118,3.933" transform="translate(-612.711 -202.351)" fill="none" stroke="#2f2e41" stroke-miterlimit="10" stroke-width="1"/>
    <path id="Pfad_1081" data-name="Pfad 1081" d="M562.441,223.849a155.287,155.287,0,0,1,33.792,11.819,161.629,161.629,0,0,1,24.121,14.157" transform="translate(-470.421 -177.343)" fill="none" stroke="#2f2e41" stroke-miterlimit="10" stroke-width="1"/>
    <path id="Pfad_1082" data-name="Pfad 1082" d="M521.327,216.817c3.182.391,6.494.956,9.907,1.694" transform="translate(-439.213 -172.006)" fill="none" stroke="#2f2e41" stroke-miterlimit="10" stroke-width="1"/>
    <path id="Pfad_1083" data-name="Pfad 1083" d="M372.367,247.991c-5.878-8.6-7.9-16.73-4.877-23.035,3.34-6.974,12.282-10.541,24.4-10.8" transform="translate(-321.389 -169.984)" fill="none" stroke="#2f2e41" stroke-miterlimit="10" stroke-width="1"/>
    <path id="Pfad_1084" data-name="Pfad 1084" d="M868.346,434.318c4.9,7.887,6.42,15.281,3.625,21.116-2.459,5.134-7.954,8.422-15.518,9.9" transform="translate(-693.586 -337.097)" fill="none" stroke="#2f2e41" stroke-miterlimit="10" stroke-width="1"/>
    <path id="Pfad_1085" data-name="Pfad 1085" d="M802.78,331.65a120.021,120.021,0,0,1,13.884,11.508" transform="translate(-652.846 -259.168)" fill="none" stroke="#2f2e41" stroke-miterlimit="10" stroke-width="1"/>
    <path id="Pfad_1086" data-name="Pfad 1086" d="M378.605,168.1c9.757-2.1,22.383-1.724,36.5,1.06" transform="translate(-330.882 -134.009)" fill="none" stroke="#2f2e41" stroke-miterlimit="10" stroke-width="1"/>
    <path id="Pfad_1087" data-name="Pfad 1087" d="M967.943,434.314c4.368,6.381,7.055,12.555,7.757,18.178" transform="translate(-778.21 -337.094)" fill="none" stroke="#2f2e41" stroke-miterlimit="10" stroke-width="1"/>
    <path id="Pfad_1088" data-name="Pfad 1088" d="M779.444,273.12q6.572,3.8,12.506,7.86" transform="translate(-635.133 -214.742)" fill="none" stroke="#2f2e41" stroke-miterlimit="10" stroke-width="1"/>
    <path id="Pfad_1090" data-name="Pfad 1090" d="M690.047,303.075h2.591s2.376,18.356.648,20.084-6.479,2.807-7.127,0,0-13.173,0-13.173Z" transform="translate(-564.108 -237.479)" fill="#683b89"/>
    <ellipse id="Ellipse_23" data-name="Ellipse 23" cx="15.765" cy="18.464" rx="15.765" ry="18.464" transform="translate(93.221 31.151)" fill="#2f2e41"/>
    <path id="Pfad_1091" data-name="Pfad 1091" d="M610.464,244.292s.864,7.127-1.728,8.638,3.023,10.15,3.023,10.15l6.695,1.728,4.535-6.263-.864-6.479s-5.183-5.183-2.807-9.934Z" transform="translate(-505.041 -191.221)" fill="#ffc1c7"/>
    <path id="Pfad_1092" data-name="Pfad 1092" d="M610.464,244.292s.864,7.127-1.728,8.638,3.023,10.15,3.023,10.15l6.695,1.728,4.535-6.263-.864-6.479s-5.183-5.183-2.807-9.934Z" transform="translate(-505.041 -191.221)" opacity="0.1"/>
    <path id="Pfad_1093" data-name="Pfad 1093" d="M574.1,564.653s-2.591,23.539,0,29.154,9.5,21.38,9.5,21.38l-2.16,4.535,5.831-1.3,2.375-4.535s-2.807-11.014-3.239-14.9-3.671-11.014-3.671-11.014l6.047-25.7Z" transform="translate(-478.396 -434.223)" fill="#ffc1c7"/>
    <path id="Pfad_1094" data-name="Pfad 1094" d="M662.869,546.283s.216,23.755,1.728,27.44l-.864,32.177,4.751.634s6.911-26.995,5.831-33.473.216-29.8.216-29.8Z" transform="translate(-546.648 -419.787)" fill="#ffc1c7"/>
    <circle id="Ellipse_24" data-name="Ellipse 24" cx="8.206" cy="8.206" r="8.206" transform="translate(100.78 39.573)" fill="#ffc1c7"/>
    <path id="Pfad_1095" data-name="Pfad 1095" d="M608.251,350.372s-5.831,3.887-8.206,1.08-31.53,1.728-35.2.864,1.944-14.685,1.944-21.812c0-5.332,1.935-13.443,2.909-17.192.328-1.261.546-2.028.546-2.028s2.216-6.3,1.8-8.923a2.255,2.255,0,0,0-.162-.577,1.187,1.187,0,0,0-.127-.218c-1.034-1.38-4-11.443-5.151-15.765a19.51,19.51,0,0,1-.464-1.944c0-.648,7.99-2.591,9.988-2.684s2.537,2.684,2.537,2.684c.648.432,3.671,7.99,3.671,7.99l2.807-7.127s-.216-1.512-.432-1.512,3.194-2.039,3.194-2.039,3.5,2.471,5.444,2.039,6.479,3.455,6.479,3.455-7.99,20.084-4.751,24.4S608.251,350.372,608.251,350.372Z" transform="translate(-471.298 -220.853)" fill="#683b89"/>
    <path id="Pfad_1096" data-name="Pfad 1096" d="M585.083,772.847s-3.671,3.671-3.671,4.1l-3.023-1.3s-1.3,4.751-1.512,5.4-3.887,6.479-7.558,9.07,0,5.831,3.239,5.183S584,787.316,584,787.316s5.615,0,7.558-4.319C591.562,783,586.379,772.415,585.083,772.847Z" transform="translate(-474.478 -594.042)" fill="#2f2e41"/>
    <path id="Pfad_1097" data-name="Pfad 1097" d="M663.822,792.815s-5.548-4.031-5.905-.288-.357,11.949-.357,11.949-1.728,5.4,3.671,4.751,5.831-2.16,5.831-2.16L664.469,796.7v-4.535Z" transform="translate(-542.418 -607.781)" fill="#2f2e41"/>
    <path id="Pfad_1098" data-name="Pfad 1098" d="M581.221,316.151c-1.034-1.38-4-11.443-5.151-15.765h1.047s2.63,10.295,4.231,15.983A1.18,1.18,0,0,0,581.221,316.151Z" transform="translate(-480.766 -235.438)" opacity="0.1"/>
    <path id="Pfad_1099" data-name="Pfad 1099" d="M605.215,382.566s-3.023.216-14.037-1.944a22.019,22.019,0,0,1-2.274-.564c.328-1.261.546-2.028.546-2.028s2.216-6.3,1.8-8.923a18.926,18.926,0,0,0,1.006,3.092c.432.216,14.253,2.591,16.2,3.455S605.215,382.566,605.215,382.566Z" transform="translate(-490.507 -287.6)" opacity="0.1"/>
    <path id="Pfad_1100" data-name="Pfad 1100" d="M672.727,306.821s5.957-.735,6.326.231,1.881,10.3,2.529,11.5.864,8.616-1.728,8.855-6.047-2.393-5.4-4.547S672.727,306.821,672.727,306.821Z" transform="translate(-554.131 -240.119)" opacity="0.1"/>
    <path id="Pfad_1101" data-name="Pfad 1101" d="M654.058,387.939s9.07,1.08,10.582,0,7.774-1.08,6.479,1.944-12.525,3.239-12.525,3.239h-6.479Z" transform="translate(-538.485 -301.395)" fill="#ffc1c7"/>
    <path id="Pfad_1102" data-name="Pfad 1102" d="M567.26,294.112h-1.512s-3.023.648-2.591,10.15-2.591,15.765,8.422,17.924,14.037,1.944,14.037,1.944,5.183-6.047,3.239-6.911-15.765-3.239-16.2-3.455S567.26,294.112,567.26,294.112Z" transform="translate(-470.908 -230.676)" fill="#683b89"/>
    <path id="Pfad_1103" data-name="Pfad 1103" d="M661.731,267.083s-3.784-14.2-6.807-14.2-6.479.648-3.887,3.455,5.831,5.831,6.047,7.342a20.348,20.348,0,0,0,1.08,3.671Z" transform="translate(-536.976 -199.384)" fill="#ffc1c7"/>
    <path id="Pfad_1104" data-name="Pfad 1104" d="M676.312,306.821s5.957-.735,6.326.231,1.881,10.3,2.529,11.5.864,8.616-1.728,8.855-6.047-2.393-5.4-4.547S676.312,306.821,676.312,306.821Z" transform="translate(-556.852 -240.119)" fill="#683b89"/>
    <circle id="Ellipse_25" data-name="Ellipse 25" cx="7.774" cy="7.774" r="7.774" transform="translate(99.052 32.231)" fill="#2f2e41"/>
    <path id="Pfad_1105" data-name="Pfad 1105" d="M508.489,438.8A149.684,149.684,0,0,1,469.008,425.9c-15.676-7.509-28.96-16.743-38.426-26.076" transform="translate(-370.335 -310.912)" fill="none" stroke="#2f2e41" stroke-miterlimit="10" stroke-width="1"/>
    <path id="Pfad_1106" data-name="Pfad 1106" d="M459.572,467.307a195.211,195.211,0,0,1-28.991-18.281" transform="translate(-370.334 -348.261)" fill="none" stroke="#2f2e41" stroke-miterlimit="10" stroke-width="1"/>
    <circle id="Ellipse_26" data-name="Ellipse 26" cx="12.94" cy="12.94" r="12.94" transform="translate(0 5.772)" fill="#683b89"/>
    <circle id="Ellipse_27" data-name="Ellipse 27" cx="12.94" cy="12.94" r="12.94" transform="translate(3.035 0.5)" fill="none" stroke="#2f2e41" stroke-miterlimit="10" stroke-width="1"/>
    <circle id="Ellipse_28" data-name="Ellipse 28" cx="7.529" cy="7.529" r="7.529" transform="translate(185.319 57.922)" fill="#f2f2f2"/>
    <circle id="Ellipse_29" data-name="Ellipse 29" cx="7.529" cy="7.529" r="7.529" transform="translate(187.085 54.855)" fill="none" stroke="#2f2e41" stroke-miterlimit="10" stroke-width="1"/>
    <circle id="Ellipse_30" data-name="Ellipse 30" cx="10.822" cy="10.822" r="10.822" transform="translate(44.687 133.107)" fill="#f2f2f2"/>
    <circle id="Ellipse_31" data-name="Ellipse 31" cx="10.822" cy="10.822" r="10.822" transform="translate(47.225 128.698)" fill="none" stroke="#2f2e41" stroke-miterlimit="10" stroke-width="1"/>
  </g>
</svg>
