<svg xmlns="http://www.w3.org/2000/svg" xmlns:xlink="http://www.w3.org/1999/xlink" width="300" height="200" viewBox="0 0 300 200"><defs><clipPath id="b"><rect width="300" height="200"/></clipPath></defs><g id="a" clip-path="url(#b)"><rect width="300" height="200" fill="#fff"/><g transform="translate(28 -0.883)"><circle cx="5.092" cy="5.092" r="5.092" transform="translate(40.914 3.261)" fill="#f1f1f1"/><circle cx="3.212" cy="3.212" r="3.212" transform="translate(66.262 16.185)" fill="#f1f1f1"/><circle cx="2.294" cy="2.294" r="2.294" transform="translate(88.923 26.766)" fill="#f1f1f1"/><circle cx="5.092" cy="5.092" r="5.092" transform="translate(194.048 3.261)" fill="#f1f1f1"/><circle cx="3.212" cy="3.212" r="3.212" transform="translate(172.46 16.185)" fill="#f1f1f1"/><circle cx="2.294" cy="2.294" r="2.294" transform="translate(151.636 26.766)" fill="#f1f1f1"/><ellipse cx="27.264" cy="3.106" rx="27.264" ry="3.106" transform="translate(97.653 178.044)" fill="#f1f1f1"/><path d="M315.779,254.566l-184.268-1.242,1.86-126.278,184.272,2.714Z" transform="translate(-93.872 -90.66)" fill="#f1f1f1"/><line x2="241.581" transform="translate(1.02 200.822)" fill="none" stroke="#3f3d56" stroke-miterlimit="10" stroke-width="2"/><line x2="241.581" transform="translate(1.02 1)" fill="none" stroke="#3f3d56" stroke-miterlimit="10" stroke-width="2"/><path d="M629.907,2.447,539.446,38.979V163.652l90.461,38.272Z" transform="translate(-387.285 -1.041)" fill="#3f3d56" stroke="#3f3d56" stroke-miterlimit="10" stroke-width="2"/><line x2="64.946" y2="15.077" transform="translate(159.699 135.937)" fill="none" stroke="#fff" stroke-miterlimit="10" stroke-width="2"/><line x2="64.946" y2="9.858" transform="translate(159.699 126.079)" fill="none" stroke="#fff" stroke-miterlimit="10" stroke-width="2"/><line x2="64.946" y2="6.958" transform="translate(159.699 115.642)" fill="none" stroke="#fff" stroke-miterlimit="10" stroke-width="2"/><path d="M635.012,283.285v15.077l-52.189-3.479v-11.6Z" transform="translate(-418.485 -203.038)" fill="#6c63ff"/><path d="M635.012,283.285v15.077l-52.189-3.479v-.58l51.029,2.9V283.285Z" transform="translate(-418.485 -203.038)" opacity="0.2"/><path d="M1,2.447,91.46,38.979V163.652L1,201.924Z" transform="translate(0 -1.041)" fill="#3f3d56" stroke="#3f3d56" stroke-miterlimit="10" stroke-width="2"/><line x1="64.946" y2="15.077" transform="translate(18.976 135.937)" fill="none" stroke="#fff" stroke-miterlimit="10" stroke-width="2"/><line x1="64.946" y2="9.858" transform="translate(18.976 126.079)" fill="none" stroke="#fff" stroke-miterlimit="10" stroke-width="2"/><line x1="64.946" y2="6.958" transform="translate(18.976 115.642)" fill="none" stroke="#fff" stroke-miterlimit="10" stroke-width="2"/><path d="M93.95,283.285v15.077l52.189-3.479v-11.6Z" transform="translate(-66.856 -203.038)" fill="#6c63ff"/><path d="M93.95,283.285v15.077l52.189-3.479v-.58L95.11,297.2V283.285Z" transform="translate(-66.856 -203.038)" opacity="0.2"/><line x2="45.369" y2="0.558" transform="translate(99.889 48.032)" fill="none" stroke="#3f3d56" stroke-miterlimit="10" stroke-width="2"/><path d="M353.522,165.03l.388-.406-2-1.909,2.051-1.86-.378-.416-2.5,2.266Z" transform="translate(-251.801 -114.678)" fill="#3f3d56"/><path d="M507.164,166.855l-.378-.416,2.051-1.859-2-1.91.388-.406,2.441,2.326Z" transform="translate(-363.794 -115.991)" fill="#3f3d56"/><circle cx="3.796" cy="3.796" r="3.796" transform="translate(118.777 44.515)" fill="#3f3d56"/><path d="M582.684,692.069s-1.035,4.487-.69,6.212a40.726,40.726,0,0,1,.345,5.522h1.035v-4.141s2.761,1.38,3.451,3.451,7.938,1.38,8.283.69-3.451-2.071-3.451-2.071l-3.106-9.318Z" transform="translate(-465.188 -523.17)" fill="#2f2e41"/><path d="M576.028,533.044s1.726,6.212,1.726,8.628-1.38,33.476,0,33.476,6.9.69,7.247-.69-.69-14.15,0-15.53,5.522-30.715,5.177-31.06S577.754,526.487,576.028,533.044Z" transform="translate(-460.947 -404.869)" fill="#2f2e41"/><path d="M569.755,522.572s-3.106,8.283-.345,8.283,4.487-2.416,6.557-1.726,8.283-7.938,8.283-7.938Z" transform="translate(-455.365 -400.264)" fill="#3f3d56"/><circle cx="5.522" cy="5.522" r="5.522" transform="translate(121.811 76.58)" fill="#ffb9b9"/><path d="M608.283,388.6s-2.416,7.938-1.726,8.973-6.557-.345-6.557-.345,2.416-6.557,2.071-7.938S608.283,388.6,608.283,388.6Z" transform="translate(-478.189 -304.769)" fill="#ffb9b9"/><path d="M578.515,406.915s-3.106-1.035-4.141,0-4.832,25.539-7.247,27.954-4.141,5.867-2.071,6.212,18.981,2.416,19.672,1.38.518-11.216.172-13.632S581.966,407.26,578.515,406.915Z" transform="translate(-452.391 -317.738)" fill="#6c63ff"/><path d="M436.869,433.26l1.38,3.451,3.106-2.416-.345-2.416Z" transform="translate(-313.505 -309.917)" fill="#ffb9b9"/><path d="M583.4,424.268s-.173-4.314-2.243,1.208-6.557,12.769-2.761,18.291,3.9,7.931,5.694,7.765,7.42,1.9,7.42,1.208-6.557-11.389-6.557-11.389a6.354,6.354,0,0,1,1.726-5.522C589.093,433.414,587.885,425.3,583.4,424.268Z" transform="translate(-461.588 -329.397)" opacity="0.1"/><path d="M582.1,412.94s-3.8-.69-5.867,4.832-6.557,12.769-2.761,18.291,5.732,11.031,7.525,10.865,5.59-1.2,5.59-1.892-6.557-11.389-6.557-11.389a6.353,6.353,0,0,1,1.726-5.522C584.175,425.709,586.591,413.976,582.1,412.94Z" transform="translate(-458.051 -322.383)" fill="#6c63ff"/><path d="M569.717,353.314c-2.839-.4-5.639,1.4-7.21,3.8a19.886,19.886,0,0,0-2.553,8.142,9.726,9.726,0,0,1-.584,2.506c-.686,1.576-2.241,2.767-2.494,4.467a9.616,9.616,0,0,0,.45,3.211,11.771,11.771,0,0,1-1.779,8.277c-.675,1.1-1.659,2.209-2.948,2.248l2.7.419a4.715,4.715,0,0,1-2.235,2.284,13.686,13.686,0,0,0,11.971-13.034,3.781,3.781,0,0,1,2.513-4.386,9.625,9.625,0,0,0,4.931-6.824,24.615,24.615,0,0,0-.1-3.81c-.053-1.338,2.193-2.24,2.5-3.521C575.34,355.145,571.5,353.567,569.717,353.314Z" transform="translate(-444.096 -279.475)" fill="#2f2e41"/></g></g></svg>