<svg xmlns="http://www.w3.org/2000/svg" width="250.874" height="208.456" viewBox="0 0 250.874 208.456">
  <g id="undraw_decide_3iwx" transform="translate(0 0.064)">
    <circle id="Ellipse_89" data-name="Ellipse 89" cx="5.245" cy="5.245" r="5.245" transform="translate(42.112 3.329)" fill="#f1f1f1"/>
    <circle id="Ellipse_90" data-name="Ellipse 90" cx="3.309" cy="3.309" r="3.309" transform="translate(68.221 16.641)" fill="#f1f1f1"/>
    <circle id="Ellipse_91" data-name="Ellipse 91" cx="2.363" cy="2.363" r="2.363" transform="translate(91.562 27.54)" fill="#f1f1f1"/>
    <circle id="Ellipse_92" data-name="Ellipse 92" cx="5.245" cy="5.245" r="5.245" transform="translate(199.843 3.329)" fill="#f1f1f1"/>
    <circle id="Ellipse_93" data-name="Ellipse 93" cx="3.309" cy="3.309" r="3.309" transform="translate(177.607 16.641)" fill="#f1f1f1"/>
    <circle id="Ellipse_94" data-name="Ellipse 94" cx="2.363" cy="2.363" r="2.363" transform="translate(156.157 27.54)" fill="#f1f1f1"/>
    <ellipse id="Ellipse_95" data-name="Ellipse 95" cx="28.083" cy="3.199" rx="28.083" ry="3.199" transform="translate(100.554 183.359)" fill="#f1f1f1"/>
    <path id="Pfad_1321" data-name="Pfad 1321" d="M321.31,258.394l-189.8-1.279,1.915-130.069,189.8,2.8Z" transform="translate(-92.772 -89.598)" fill="#f1f1f1"/>
    <line id="Linie_5" data-name="Linie 5" x2="248.833" transform="translate(1.021 206.82)" fill="none" stroke="#3f3d56" stroke-miterlimit="10" stroke-width="2"/>
    <line id="Linie_6" data-name="Linie 6" x2="248.833" transform="translate(1.021 1)" fill="none" stroke="#3f3d56" stroke-miterlimit="10" stroke-width="2"/>
    <path id="Pfad_1322" data-name="Pfad 1322" d="M632.622,2.447,539.446,40.076V168.491l93.176,39.421Z" transform="translate(-382.748 -1.029)" fill="#3f3d56" stroke="#3f3d56" stroke-miterlimit="10" stroke-width="2"/>
    <line id="Linie_7" data-name="Linie 7" x2="66.896" y2="15.529" transform="translate(164.463 139.988)" fill="none" stroke="#fff" stroke-miterlimit="10" stroke-width="2"/>
    <line id="Linie_8" data-name="Linie 8" x2="66.896" y2="10.154" transform="translate(164.463 129.834)" fill="none" stroke="#fff" stroke-miterlimit="10" stroke-width="2"/>
    <line id="Linie_9" data-name="Linie 9" x2="66.896" y2="7.167" transform="translate(164.463 119.083)" fill="none" stroke="#fff" stroke-miterlimit="10" stroke-width="2"/>
    <path id="Pfad_1323" data-name="Pfad 1323" d="M636.578,283.285v15.529l-53.755-3.584V283.285Z" transform="translate(-413.582 -200.659)" fill="#6c63ff"/>
    <path id="Pfad_1324" data-name="Pfad 1324" d="M636.578,283.285v15.529l-53.755-3.584v-.6l52.561,2.986V283.285Z" transform="translate(-413.582 -200.659)" opacity="0.2"/>
    <path id="Pfad_1325" data-name="Pfad 1325" d="M1,2.447,94.176,40.076V168.491L1,207.912Z" transform="translate(0 -1.029)" fill="#3f3d56" stroke="#3f3d56" stroke-miterlimit="10" stroke-width="2"/>
    <line id="Linie_10" data-name="Linie 10" x1="66.896" y2="15.529" transform="translate(19.516 139.988)" fill="none" stroke="#fff" stroke-miterlimit="10" stroke-width="2"/>
    <line id="Linie_11" data-name="Linie 11" x1="66.896" y2="10.154" transform="translate(19.516 129.834)" fill="none" stroke="#fff" stroke-miterlimit="10" stroke-width="2"/>
    <line id="Linie_12" data-name="Linie 12" x1="66.896" y2="7.167" transform="translate(19.516 119.083)" fill="none" stroke="#fff" stroke-miterlimit="10" stroke-width="2"/>
    <path id="Pfad_1326" data-name="Pfad 1326" d="M93.95,283.285v15.529l53.755-3.584V283.285Z" transform="translate(-66.072 -200.659)" fill="#6c63ff"/>
    <path id="Pfad_1327" data-name="Pfad 1327" d="M93.95,283.285v15.529l53.755-3.584v-.6L95.145,297.62V283.285Z" transform="translate(-66.072 -200.659)" opacity="0.2"/>
    <line id="Linie_13" data-name="Linie 13" x2="46.731" y2="0.575" transform="translate(102.857 49.444)" fill="none" stroke="#3f3d56" stroke-miterlimit="10" stroke-width="2"/>
    <path id="Pfad_1328" data-name="Pfad 1328" d="M353.595,165.168l.4-.419-2.065-1.967,2.113-1.916-.389-.428-2.572,2.334Z" transform="translate(-248.851 -113.335)" fill="#3f3d56"/>
    <path id="Pfad_1329" data-name="Pfad 1329" d="M507.175,166.993l-.389-.429,2.112-1.915-2.065-1.967.4-.418,2.514,2.4Z" transform="translate(-359.532 -114.632)" fill="#3f3d56"/>
    <circle id="Ellipse_96" data-name="Ellipse 96" cx="3.91" cy="3.91" r="3.91" transform="translate(122.313 45.821)" fill="#3f3d56"/>
    <path id="Pfad_1330" data-name="Pfad 1330" d="M582.707,692.069s-1.066,4.621-.711,6.4a41.946,41.946,0,0,1,.356,5.688h1.066v-4.266s2.844,1.422,3.555,3.555,8.176,1.422,8.531.711-3.555-2.133-3.555-2.133l-3.2-9.6Z" transform="translate(-461.714 -518.13)" fill="#2f2e41"/>
    <path id="Pfad_1331" data-name="Pfad 1331" d="M576.028,533.208s1.777,6.4,1.777,8.887-1.422,34.481,0,34.481,7.109.711,7.465-.711-.711-14.574,0-16,5.688-31.637,5.332-31.993S577.805,526.454,576.028,533.208Z" transform="translate(-457.523 -401.215)" fill="#2f2e41"/>
    <path id="Pfad_1332" data-name="Pfad 1332" d="M569.8,522.614s-3.2,8.531-.355,8.531,4.621-2.488,6.754-1.777,8.531-8.176,8.531-8.176Z" transform="translate(-452.005 -396.664)" fill="#3f3d56"/>
    <circle id="Ellipse_97" data-name="Ellipse 97" cx="5.688" cy="5.688" r="5.688" transform="translate(125.437 78.849)" fill="#ffb9b9"/>
    <path id="Pfad_1333" data-name="Pfad 1333" d="M608.531,388.6s-2.488,8.176-1.777,9.242-6.754-.355-6.754-.355,2.488-6.754,2.133-8.176S608.531,388.6,608.531,388.6Z" transform="translate(-474.563 -302.288)" fill="#ffb9b9"/>
    <path id="Pfad_1334" data-name="Pfad 1334" d="M578.947,406.929s-3.2-1.066-4.266,0-4.977,26.305-7.465,28.793-4.266,6.043-2.133,6.4,19.551,2.488,20.262,1.422.533-11.553.178-14.041S582.5,407.284,578.947,406.929Z" transform="translate(-449.066 -315.105)" fill="#6c63ff"/>
    <path id="Pfad_1335" data-name="Pfad 1335" d="M436.869,433.3l1.422,3.555,3.2-2.489-.355-2.488Z" transform="translate(-309.832 -306.286)" fill="#ffb9b9"/>
    <path id="Pfad_1336" data-name="Pfad 1336" d="M583.593,424.316s-.178-4.443-2.311,1.244-6.754,13.153-2.844,18.84,4.018,8.169,5.865,8,7.643,1.955,7.643,1.244-6.754-11.731-6.754-11.731a6.544,6.544,0,0,1,1.777-5.688C589.458,433.736,588.214,425.383,583.593,424.316Z" transform="translate(-458.156 -326.627)" opacity="0.1"/>
    <path id="Pfad_1337" data-name="Pfad 1337" d="M582.408,412.941s-3.91-.711-6.043,4.977-6.754,13.153-2.844,18.84,5.9,11.362,7.751,11.191,5.757-1.238,5.757-1.948-6.754-11.731-6.754-11.731a6.544,6.544,0,0,1,1.777-5.688C584.541,426.094,587.029,414.007,582.408,412.941Z" transform="translate(-454.66 -319.695)" fill="#6c63ff"/>
    <path id="Pfad_1338" data-name="Pfad 1338" d="M570.231,353.316c-2.925-.413-5.808,1.44-7.426,3.912s-2.2,5.463-2.63,8.386a10.019,10.019,0,0,1-.6,2.581c-.707,1.624-2.308,2.85-2.568,4.6a9.906,9.906,0,0,0,.464,3.307,12.125,12.125,0,0,1-1.833,8.526c-.7,1.132-1.708,2.275-3.036,2.316l2.782.431a4.857,4.857,0,0,1-2.3,2.353A14.1,14.1,0,0,0,565.411,376.3,3.9,3.9,0,0,1,568,371.786a9.914,9.914,0,0,0,5.079-7.029,25.354,25.354,0,0,0-.1-3.925c-.055-1.378,2.259-2.308,2.571-3.626C576.023,355.2,572.072,353.576,570.231,353.316Z" transform="translate(-440.869 -277.291)" fill="#2f2e41"/>
  </g>
</svg>
