<svg xmlns="http://www.w3.org/2000/svg" xmlns:xlink="http://www.w3.org/1999/xlink" width="300" height="200" viewBox="0 0 300 200">
  <defs>
    <clipPath id="clip-SVG_export">
      <rect width="300" height="200"/>
    </clipPath>
  </defs>
  <g id="SVG_export" clip-path="url(#clip-SVG_export)">
    <rect width="300" height="200" fill="#fff"/>
    <g id="style_info.svg" transform="translate(5.78)">
      <path id="Pfad_1373" data-name="Pfad 1373" d="M52,70V173.142H155.142V70Zm52.412,100.9a2.8,2.8,0,1,1,2.8-2.8A2.8,2.8,0,0,1,104.412,170.9Z" transform="translate(-52 -70)" fill="#683b89"/>
      <path id="Pfad_1374" data-name="Pfad 1374" d="M672.983,255.986c0,42.7-33.49,78.14-77.384,84.845a100.079,100.079,0,0,1-15.107,1.141c-51.106,0-92.513-38.511-92.491-86C488,208.5,529.411,170,580.491,170a96.887,96.887,0,0,1,53.816,16.051C657.724,201.648,672.983,227.16,672.983,255.986Z" transform="translate(-384.562 -141.972)" fill="#683b89"/>
      <path id="Pfad_1375" data-name="Pfad 1375" d="M909.086,149.958l8.033-2.5.693-7.075s-19.537-7.38-25.784,5.674a20.716,20.716,0,0,1-7.658,9.03,14.12,14.12,0,0,1-12.288,1.058c-13.541-4.945-16.729,9.118-16.729,9.118s1.171,2,9.517,2.494c4.154.245,7.553,3.371,9.919,6.449a10.359,10.359,0,0,0,18.033-3.225q.062-.191.122-.387c3.993-13.08,22.17-2.666,22.17-2.666l1.161-11.847Z" transform="translate(-648.954 -119.158)" fill="#2f2e41"/>
      <circle id="Ellipse_111" data-name="Ellipse 111" cx="9.839" cy="9.839" r="9.839" transform="translate(200.336 40.237)" fill="#2f2e41"/>
      <circle id="Ellipse_112" data-name="Ellipse 112" cx="26.236" cy="26.236" r="26.236" transform="translate(178.788 48.685)" fill="#2f2e41"/>
      <circle id="Ellipse_113" data-name="Ellipse 113" cx="18.037" cy="18.037" r="18.037" transform="translate(186.517 65.541)" fill="#a0616a"/>
      <path id="Pfad_1376" data-name="Pfad 1376" d="M805.955,429.9l3.28,17.491,16.4-2.186s-2.733-13.665-1.093-17.491Z" transform="translate(-608.43 -334.2)" fill="#a0616a"/>
      <path id="Pfad_1377" data-name="Pfad 1377" d="M465.157,661.928s-18.584-10.932-20.224-3.28,18.584,10.932,18.584,10.932Z" transform="translate(-341.937 -502.425)" fill="#a0616a"/>
      <path id="Pfad_1378" data-name="Pfad 1378" d="M870.9,281.292s-13.118-9.839-18.584-6.012,14.758,16.4,16.944,15.3S870.9,281.292,870.9,281.292Z" transform="translate(-641.947 -220.897)" fill="#a0616a"/>
      <path id="Pfad_1379" data-name="Pfad 1379" d="M745.245,456.963l-19.677,3.28v8.745s-18.584,6.012-18.584,8.745-4.919,13.118-4.919,13.118-12.025,8.745-2.186,19.13c0,0,3.826,6.012,1.093,6.559s-8.745,2.186-6.012,4.373,43.727,16.944,47.006,15.851,28.422-39.9,28.422-49.739S760,462.976,760,462.976l-12.025-1.64Z" transform="translate(-528.869 -361.517)" fill="#d0cde1"/>
      <path id="Pfad_1380" data-name="Pfad 1380" d="M570.054,529.017s-7.652-1.093-10.385,8.2-12.025,39.354-12.025,39.354-33.342-.547-42.087-8.745L501.731,580.4s50.286,18.037,54.658,14.758,23.5-56.3,23.5-56.3Z" transform="translate(-386.008 -413.347)" fill="#d0cde1"/>
      <path id="Pfad_1381" data-name="Pfad 1381" d="M911.034,346.677l1.64-1.64s20.77-22.41,20.224-27.876c0,0-10.932-13.665-24.6-9.839,0,0-6.012-14.758,3.28-14.211s43.727-1.64,43.18,14.211-33.342,64.5-33.342,64.5Z" transform="translate(-685.685 -236.626)" fill="#d0cde1"/>
      <path id="Pfad_1382" data-name="Pfad 1382" d="M715.382,724.506a93.171,93.171,0,0,1-15.107,1.228,92.062,92.062,0,0,1-45.845-12.144l3.248-6.578,10.339-20.954.46-.928,7.531,2.27,37.835,11.4.1,1.746Z" transform="translate(-498.449 -525.734)" fill="#2f2e41"/>
      <ellipse id="Ellipse_114" data-name="Ellipse 114" cx="11.478" cy="18.037" rx="11.478" ry="18.037" transform="translate(184.451 75.685) rotate(-71.208)" fill="#2f2e41"/>
      <path id="Pfad_1383" data-name="Pfad 1383" d="M378.554,397.905c-5.608-8.619-19.039-14.076-30.027-9.157-4.946,2.214-8.877,6.131-10.125,10.76-1.45,5.378,1.6,10.505,4.754,15.023a83.876,83.876,0,0,1,5,7.441c1.465,2.678,2.512,5.774,1.409,8.688-.994,2.625-3.483,4.535-6.21,5.938a51.1,51.1,0,0,1-9.542,3.573,66.294,66.294,0,0,1-21.3,2.312,68.628,68.628,0,0,1-10.618-1.44c-3.7-.791-7.332-1.794-11.039-2.567-6.189-1.29-13.245-1.931-19.113.661-5.7,2.517-8.253,7.781-9.042,12.9-1.458,9.457,3.013,19.271,11.084,25.894a32.835,32.835,0,0,0,14.052,6.876c4.631.937,10.577.877,14.262-2.027,4.112-3.241,3.147-8.438-.121-11.857-4.169-4.363-11.232-5.411-17.534-5.517-7.169-.121-14.332.775-21.5.218a38.342,38.342,0,0,1-10.166-2.057,26.488,26.488,0,0,1-7.661-4.349,27.4,27.4,0,0,1-8.89-13.4c-1.786-6.005-1.4-12.316-.01-18.347a72.23,72.23,0,0,1,2.85-9.2c.479-1.274,2.877-.73,2.394.554-4.27,11.358-6.651,24.492,1.6,35.038a25.132,25.132,0,0,0,14.873,8.981c7.141,1.489,14.634.753,21.893.531,6.9-.211,14.481.016,20.4,3.389,4.854,2.766,8.249,8.027,6.782,12.994-1.415,4.79-6.9,7.219-12.391,7.594a30.906,30.906,0,0,1-16.262-3.763c-10.06-5.274-16.75-14.548-18.15-24.381a23.491,23.491,0,0,1,2.783-15.293,16.251,16.251,0,0,1,6.557-6.13,24.645,24.645,0,0,1,9.342-2.415c7.427-.574,14.562,1.565,21.607,3.2a70.257,70.257,0,0,0,11.018,1.764,65.545,65.545,0,0,0,10.871-.148,62.439,62.439,0,0,0,10.534-1.961,46.476,46.476,0,0,0,9.562-3.626c2.642-1.417,4.927-3.447,5.057-6.211.141-3-1.662-5.8-3.377-8.333-3.388-4.995-7.571-9.881-8.456-15.728-.774-5.115,1.68-10.157,5.917-13.805a24.562,24.562,0,0,1,16.443-5.722,29.471,29.471,0,0,1,16.93,5.966,24.542,24.542,0,0,1,5.709,6.085C381.463,398.031,379.32,399.083,378.554,397.905Z" transform="translate(-190.5 -327.489)" fill="#3f3d56"/>
      <path id="Pfad_1384" data-name="Pfad 1384" d="M219.478,104A12.275,12.275,0,0,0,213,126.7c.036.022.073.041.109.063a6.725,6.725,0,0,1,12.729,0c.036-.022.074-.041.109-.063a12.275,12.275,0,0,0-6.474-22.7Zm0,17.026a4.355,4.355,0,1,1,4.355-4.355A4.355,4.355,0,0,1,219.478,121.026Z" transform="translate(-167.907 -94.19)" fill="#fff"/>
      <rect id="Rechteck_103" data-name="Rechteck 103" width="30" height="4" rx="2" transform="translate(36.441 57.691)" fill="#fff"/>
      <rect id="Rechteck_104" data-name="Rechteck 104" width="30.177" height="4.024" rx="2.012" transform="translate(36.434 67.69)" fill="#fff"/>
      <rect id="Rechteck_105" data-name="Rechteck 105" width="30.177" height="4.024" rx="2.012" transform="translate(36.434 48.824)" fill="#fff"/>
      <rect id="Rechteck_106" data-name="Rechteck 106" width="30.177" height="4.024" rx="2.012" transform="translate(36.434 39.391)" fill="#fff"/>
    </g>
  </g>
</svg>
