<svg xmlns="http://www.w3.org/2000/svg" xmlns:xlink="http://www.w3.org/1999/xlink" width="300" height="200" viewBox="0 0 300 200">
  <defs>
    <clipPath id="clip-SVG_export">
      <rect width="300" height="200"/>
    </clipPath>
  </defs>
  <g id="SVG_export" clip-path="url(#clip-SVG_export)">
    <rect width="300" height="200" fill="#fff"/>
    <g id="thinking.svg" transform="translate(49 -0.5)">
      <path id="Pfad_1080" data-name="Pfad 1080" d="M749.9,256.8q3.623,1.912,7.083,3.914" transform="translate(-613.393 -202.62)" fill="none" stroke="#2f2e41" stroke-miterlimit="10" stroke-width="1"/>
      <path id="Pfad_1081" data-name="Pfad 1081" d="M562.441,223.849a154.514,154.514,0,0,1,33.624,11.761,160.824,160.824,0,0,1,24,14.087" transform="translate(-470.878 -177.572)" fill="none" stroke="#2f2e41" stroke-miterlimit="10" stroke-width="1"/>
      <path id="Pfad_1082" data-name="Pfad 1082" d="M521.327,216.817c3.166.389,6.462.952,9.858,1.686" transform="translate(-439.622 -172.226)" fill="none" stroke="#2f2e41" stroke-miterlimit="10" stroke-width="1"/>
      <path id="Pfad_1083" data-name="Pfad 1083" d="M372.336,247.823c-5.849-8.559-7.858-16.646-4.853-22.92,3.324-6.939,12.221-10.489,24.281-10.75" transform="translate(-321.612 -170.201)" fill="none" stroke="#2f2e41" stroke-miterlimit="10" stroke-width="1"/>
      <path id="Pfad_1084" data-name="Pfad 1084" d="M868.287,434.318c4.875,7.848,6.388,15.205,3.607,21.011-2.447,5.109-7.914,8.38-15.441,9.855" transform="translate(-694.396 -337.578)" fill="none" stroke="#2f2e41" stroke-miterlimit="10" stroke-width="1"/>
      <path id="Pfad_1085" data-name="Pfad 1085" d="M802.78,331.65a119.423,119.423,0,0,1,13.815,11.45" transform="translate(-653.592 -259.526)" fill="none" stroke="#2f2e41" stroke-miterlimit="10" stroke-width="1"/>
      <path id="Pfad_1086" data-name="Pfad 1086" d="M378.605,168.09c9.709-2.086,22.272-1.715,36.323,1.055" transform="translate(-331.12 -134.169)" fill="none" stroke="#2f2e41" stroke-miterlimit="10" stroke-width="1"/>
      <path id="Pfad_1087" data-name="Pfad 1087" d="M967.943,434.314c4.346,6.349,7.02,12.493,7.718,18.088" transform="translate(-779.154 -337.575)" fill="none" stroke="#2f2e41" stroke-miterlimit="10" stroke-width="1"/>
      <path id="Pfad_1088" data-name="Pfad 1088" d="M779.444,273.12q6.539,3.781,12.444,7.821" transform="translate(-635.851 -215.03)" fill="none" stroke="#2f2e41" stroke-miterlimit="10" stroke-width="1"/>
      <path id="Pfad_1090" data-name="Pfad 1090" d="M690.026,303.075H692.6s2.364,18.265.645,19.984-6.446,2.793-7.091,0,0-13.108,0-13.108Z" transform="translate(-564.714 -237.802)" fill="#683b89"/>
      <ellipse id="Ellipse_23" data-name="Ellipse 23" cx="15.686" cy="18.372" rx="15.686" ry="18.372" transform="translate(92.757 30.999)" fill="#2f2e41"/>
      <path id="Pfad_1091" data-name="Pfad 1091" d="M610.452,244.281s.86,7.091-1.719,8.6,3.008,10.1,3.008,10.1l6.661,1.719,4.513-6.232-.859-6.446s-5.157-5.157-2.793-9.885Z" transform="translate(-505.554 -191.472)" fill="#ffc1c7"/>
      <path id="Pfad_1092" data-name="Pfad 1092" d="M610.452,244.281s.86,7.091-1.719,8.6,3.008,10.1,3.008,10.1l6.661,1.719,4.513-6.232-.859-6.446s-5.157-5.157-2.793-9.885Z" transform="translate(-505.554 -191.472)" opacity="0.1"/>
      <path id="Pfad_1093" data-name="Pfad 1093" d="M574.095,564.641s-2.579,23.422,0,29.009,9.455,21.273,9.455,21.273l-2.149,4.513,5.8-1.289,2.364-4.513s-2.793-10.959-3.223-14.827-3.653-10.959-3.653-10.959l6.017-25.571Z" transform="translate(-478.866 -434.857)" fill="#ffc1c7"/>
      <path id="Pfad_1094" data-name="Pfad 1094" d="M662.869,546.268s.215,23.637,1.719,27.3l-.86,32.017,4.727.631s6.876-26.86,5.8-33.307.215-29.654.215-29.654Z" transform="translate(-547.227 -420.399)" fill="#ffc1c7"/>
      <circle id="Ellipse_24" data-name="Ellipse 24" cx="8.165" cy="8.165" r="8.165" transform="translate(100.278 39.379)" fill="#ffc1c7"/>
      <path id="Pfad_1095" data-name="Pfad 1095" d="M608.029,350.027s-5.8,3.868-8.165,1.074-31.373,1.719-35.026.86,1.934-14.612,1.934-21.7c0-5.305,1.925-13.376,2.894-17.107.327-1.255.544-2.018.544-2.018s2.2-6.272,1.792-8.879a2.243,2.243,0,0,0-.161-.574,1.18,1.18,0,0,0-.127-.217c-1.029-1.373-3.98-11.387-5.125-15.686a19.424,19.424,0,0,1-.462-1.934c0-.645,7.951-2.579,9.938-2.671s2.525,2.671,2.525,2.671c.645.43,3.653,7.951,3.653,7.951l2.793-7.091s-.215-1.5-.43-1.5,3.178-2.028,3.178-2.028,3.483,2.458,5.417,2.028,6.446,3.438,6.446,3.438-7.951,19.984-4.727,24.282S608.029,350.027,608.029,350.027Z" transform="translate(-471.758 -221.15)" fill="#683b89"/>
      <path id="Pfad_1096" data-name="Pfad 1096" d="M585,772.847s-3.653,3.653-3.653,4.083l-3.008-1.289s-1.289,4.727-1.5,5.372-3.868,6.446-7.521,9.025,0,5.8,3.223,5.157,11.389-7.951,11.389-7.951,5.587,0,7.521-4.3C591.444,782.946,586.287,772.417,585,772.847Z" transform="translate(-474.942 -594.929)" fill="#2f2e41"/>
      <path id="Pfad_1097" data-name="Pfad 1097" d="M663.789,792.805s-5.52-4.011-5.876-.286-.356,11.89-.356,11.89-1.719,5.372,3.653,4.727,5.8-2.149,5.8-2.149l-2.579-10.314v-4.513Z" transform="translate(-542.99 -608.69)" fill="#2f2e41"/>
      <path id="Pfad_1098" data-name="Pfad 1098" d="M581.2,316.072c-1.029-1.373-3.98-11.387-5.125-15.686h1.042s2.617,10.243,4.21,15.9A1.173,1.173,0,0,0,581.2,316.072Z" transform="translate(-481.24 -235.758)" opacity="0.1"/>
      <path id="Pfad_1099" data-name="Pfad 1099" d="M605.134,382.5s-3.008.215-13.967-1.934A21.909,21.909,0,0,1,588.9,380c.327-1.255.544-2.018.544-2.018s2.2-6.272,1.792-8.879a18.835,18.835,0,0,0,1,3.077c.43.215,14.182,2.579,16.116,3.438S605.134,382.5,605.134,382.5Z" transform="translate(-490.996 -288.003)" opacity="0.1"/>
      <path id="Pfad_1100" data-name="Pfad 1100" d="M672.727,306.82s5.927-.731,6.294.23,1.871,10.248,2.516,11.439.86,8.573-1.719,8.811-6.017-2.381-5.372-4.525S672.727,306.82,672.727,306.82Z" transform="translate(-554.721 -240.447)" opacity="0.1"/>
      <path id="Pfad_1101" data-name="Pfad 1101" d="M654.048,387.935s9.025,1.074,10.529,0,7.736-1.074,6.446,1.934-12.463,3.223-12.463,3.223h-6.446Z" transform="translate(-539.051 -301.82)" fill="#ffc1c7"/>
      <path id="Pfad_1102" data-name="Pfad 1102" d="M567.239,294.112h-1.5s-3.008.645-2.579,10.1-2.579,15.686,8.38,17.835,13.967,1.934,13.967,1.934,5.157-6.017,3.223-6.876-15.686-3.223-16.116-3.438S567.239,294.112,567.239,294.112Z" transform="translate(-471.366 -230.989)" fill="#683b89"/>
      <path id="Pfad_1103" data-name="Pfad 1103" d="M661.673,267.013s-3.765-14.126-6.774-14.126-6.446.645-3.868,3.438,5.8,5.8,6.017,7.306a20.25,20.25,0,0,0,1.074,3.653Z" transform="translate(-537.538 -199.648)" fill="#ffc1c7"/>
      <path id="Pfad_1104" data-name="Pfad 1104" d="M676.312,306.82s5.927-.731,6.294.23,1.871,10.248,2.516,11.439.86,8.573-1.719,8.811-6.017-2.381-5.372-4.525S676.312,306.82,676.312,306.82Z" transform="translate(-557.446 -240.447)" fill="#683b89"/>
      <circle id="Ellipse_25" data-name="Ellipse 25" cx="7.736" cy="7.736" r="7.736" transform="translate(98.559 32.073)" fill="#2f2e41"/>
      <path id="Pfad_1105" data-name="Pfad 1105" d="M508.1,438.608a148.939,148.939,0,0,1-39.285-12.841c-15.6-7.472-28.816-16.66-38.234-25.947" transform="translate(-370.635 -311.351)" fill="none" stroke="#2f2e41" stroke-miterlimit="10" stroke-width="1"/>
      <path id="Pfad_1106" data-name="Pfad 1106" d="M459.428,467.216a194.24,194.24,0,0,1-28.847-18.19" transform="translate(-370.634 -348.759)" fill="none" stroke="#2f2e41" stroke-miterlimit="10" stroke-width="1"/>
      <circle id="Ellipse_26" data-name="Ellipse 26" cx="12.876" cy="12.876" r="12.876" transform="translate(0 5.746)" fill="#683b89"/>
      <circle id="Ellipse_27" data-name="Ellipse 27" cx="12.876" cy="12.876" r="12.876" transform="translate(3.02 0.5)" fill="none" stroke="#2f2e41" stroke-miterlimit="10" stroke-width="1"/>
      <circle id="Ellipse_28" data-name="Ellipse 28" cx="7.491" cy="7.491" r="7.491" transform="translate(184.397 57.636)" fill="#f2f2f2"/>
      <circle id="Ellipse_29" data-name="Ellipse 29" cx="7.491" cy="7.491" r="7.491" transform="translate(186.154 54.584)" fill="none" stroke="#2f2e41" stroke-miterlimit="10" stroke-width="1"/>
      <circle id="Ellipse_30" data-name="Ellipse 30" cx="10.769" cy="10.769" r="10.769" transform="translate(44.465 132.447)" fill="#f2f2f2"/>
      <circle id="Ellipse_31" data-name="Ellipse 31" cx="10.769" cy="10.769" r="10.769" transform="translate(46.991 128.06)" fill="none" stroke="#2f2e41" stroke-miterlimit="10" stroke-width="1"/>
    </g>
  </g>
</svg>
